<svg xmlns="http://www.w3.org/2000/svg" width="23.788" height="30.276" viewBox="0 0 23.788 30.276">
  <path id="apple-music" d="M103.1,32.358a1.748,1.748,0,0,0-1.527-.3L88.1,35.678a2.183,2.183,0,0,0-1.617,2.129V53.08a1.059,1.059,0,0,1-.751,1l-.008,0L82.213,55.3A3.272,3.272,0,0,0,80,58.481a3.753,3.753,0,0,0,1.57,3.084,3.7,3.7,0,0,0,2.17.707,3.772,3.772,0,0,0,1.2-.2l.026-.009,1.476-.537a3.233,3.233,0,0,0,2.209-3.047V44.154a1.038,1.038,0,0,1,.822-1.018l.014,0,11.8-3.152a.27.27,0,0,1,.338.261v9.592a1.039,1.039,0,0,1-.751.992l-.017.006-3.439,1.224a3.317,3.317,0,0,0-2.281,3.184,3.762,3.762,0,0,0,1.57,3.1,3.692,3.692,0,0,0,3.371.5l.024-.008,1.476-.537a3.232,3.232,0,0,0,2.209-3.046V33.752A1.74,1.74,0,0,0,103.1,32.358Z" transform="translate(-79.998 -31.995)" fill="#fff" />
</svg>
