<svg id="Layer_1" data-name="Layer 1" xmlns="http://www.w3.org/2000/svg" viewBox="0 0 1359.8 574.38"><defs><style>.cls-1{fill:#ed1c24;}</style></defs><path class="cls-1" d="M258,195q19.5,0,24.7,5.56v1.34q0,3.65-21.71,14.66a107.43,107.43,0,0,0-12.61,6.13q-.78,0-15.6,6.9l-32,13.6H199c-3.56-1.08-5.33-2.1-5.33-3.06q0-.59,43.29-19.16,36.79-16.77,36.79-21a66.67,66.67,0,0,0-12.09-.86q-33.41,0-84.24,10-19.11,3.45-48.76,13-9.09,2.77-27.69,11.11-16.91,9.87-16.9,14.94,0,7.09,31.85,8.53a108.68,108.68,0,0,1,10.92.86c.35,0,.52-.09.52-.28q11.58.28,14.57.57c.34,0,.52-.09.52-.29l4.29.29h15.6c1.47,0,3.29.1,5.46.29a8.28,8.28,0,0,1,1.82-.29,49.91,49.91,0,0,1,6.5.58,7.71,7.71,0,0,1,1.82-.29v.29l1.3-.29,3.51.29a9.89,9.89,0,0,1,2.47-.29,8.28,8.28,0,0,0,1.82.29c.34,0,.52-.1.52-.29q60.84,2.58,60.84,4.12,5,0,18.07,3.83a45.58,45.58,0,0,1,15.08,7.28,33.84,33.84,0,0,0,3,5,10.93,10.93,0,0,1-1.83,4.7,1.33,1.33,0,0,1,.66,1.05q-.92.1-7.29,7c-.6.12-2,1-4.16,2.68.35,0,.52.09.52.29q-.65,0-14.95,7.47-23.53,9.76-36.14,12.45-16.77,5.18-42.77,9.78-39.66,6.6-51.75,6.61,0,.48-23.53,1.63c0,.19-.17.28-.52.28L99.68,332c-6.33.38-9.92.57-10.79.57q-28.33-1-28.34-1.92l-1.17.29A136.4,136.4,0,0,1,36,326.21q-12.87-4.12-18.07-11.69V312.6a6.83,6.83,0,0,0-.65-2.49,1.75,1.75,0,0,0,.65-1.63l-.65-.57q2.46-4,4.16-4.41l3.12.19v.58a3,3,0,0,1-1.82,2.49c.34,0,.52.09.52.29q-1.17.09-1.17.57l1.17.86a11.76,11.76,0,0,1-1.82.19V309h1.82v2.2c0,.52.43,1.09,1.3,1.73a6.13,6.13,0,0,0-.65,2.49c2,.83,3,1.57,3,2.2-.44,0-.65.1-.65.29q10.14,7,19.37,7.76,4.93,1.64,19.24,2.78,21.19.76,23.4.77,27.69-1.05,53.05-3.84l4.81-1.15h4.16q0-1.05,11.44-1.62,2.07-.68,12.74-2.5,0-.37,12.61-2.49,26.52-6.12,37.31-9.38,10-3.27,12.09-4.51,14.7-5.65,17.94-7.47,21.19-10.25,21.19-19.35,0-6.14-21.19-10-9.09-1.9-28.21-3.35-31.73-1.64-33.67-1.63c-.87,0-1.3.1-1.3.29q-26.52-.87-47.58-.86a8.24,8.24,0,0,1-1.69-.29c-.44,0-.65.09-.65.29a302.24,302.24,0,0,1-48.24-3.84q-16.77-4.11-16.77-12.74v-.29a34.79,34.79,0,0,1,13.26-11q3.76-3.65,24.7-11.4,45.9-17.25,110.12-24.63Q249.07,195,258,195ZM28.7,296.79c.78.07,1.17.26,1.17.58v.29a7.71,7.71,0,0,0-3,2.49,8.37,8.37,0,0,1-1.82.29v.76a10.77,10.77,0,0,0-1.17,2.3h-.65a1.7,1.7,0,0,1-1.82-1.15,31.08,31.08,0,0,0,4.29-4.12A10.57,10.57,0,0,1,28.7,296.79Zm4.16-3.25h1.3V294c-1.22.51-1.82,1.08-1.82,1.72h-.65q-1.17,0-1.17-.57v-.29C32.08,294.24,32.86,293.79,32.86,293.54Z"/><path class="cls-1" d="M371.27,280.22h.65l4.42,3.26V284a62.85,62.85,0,0,1-9.49,6.51,3.16,3.16,0,0,0-.65,1.92h-1.3l-1.3-.48c0,.32-.22.48-.65.48l.65,1v.47a5.68,5.68,0,0,0-2.6.87l-1.17-.48c0,1-1.3,1.43-3.9,1.43v.48a1.21,1.21,0,0,0,1.3,1,6.35,6.35,0,0,1,1.95-.48v.48q0,.68-1.95,1.44c0-.64-.43-1-1.3-1h-1.3q0,1-4.42,2.78,0,.48-7.67,5.65c.43,0,.65.16.65.48q-3.12,1-3.12,3.26l.65,2.39a5.32,5.32,0,0,0-2.6-1q-2.47.1-7,5.66l-4.42,2.78c.86.06,1.3.38,1.3.95a19.39,19.39,0,0,0-5.72,7c-.35,0-1.22.8-2.6,2.39v3.74c1.3,1,1.95,1.79,1.95,2.3-.7,1.28-1.35,1.91-1.95,1.91H319q-4.42-1.53-4.42-4.21v-1.44q0-5,10.14-14.08a127.08,127.08,0,0,1,9-9.39v-.86h-1.3l-1.95.86h-.65l-1.82-.86c0,.25-.22.38-.65.38l.65,1v.48q-.53,0-3.9.48a5.26,5.26,0,0,0-1.82-.48q-14.7,10.35-17.29,10.82V321l-1.17-.48h-.65V321h1.17Q284,332.25,277,332.24h-1.95q-11.43-1.62-11.44-7.47,0-10.54,37.58-31.9,19.11-9.39,25.48-9.39H328q6.36,0,18.72,3.54-27.3,3.25-44.85,11.88A101.53,101.53,0,0,1,289.76,306q-18.47,14.47-18.47,19.26a2.52,2.52,0,0,1,.65,1.34q7,0,27.31-8.91l31.2-15.9,17.81-9.39Q367.9,280.22,371.27,280.22Zm-42,26.73v.48h2.47c.86,0,1.3-.32,1.3-1v-1h-.65A6.58,6.58,0,0,1,329.28,307Zm5.07-5.17v2.78l4.42.47.65-.95v-1.82Q334.86,301.78,334.35,301.78Zm0,5.17v.48h1.82a2.6,2.6,0,0,1,.65-1.44h-1.17C334.78,306.06,334.35,306.38,334.35,307Z"/><path class="cls-1" d="M466.18,277.73h2.08q2.34,0,7.8,3.45,0,5-4.68,8.43h-.52l-1-.38v1.15c1,0,1.56.25,1.56.76a5.25,5.25,0,0,1-2.08.38l.52.77v.38c-2.17,0-3.38,1-3.64,3.07h-1v1.15c1.38,0,2.08.26,2.08.77-2.52,2.55-3.9,3.83-4.16,3.83v-.77H461c0,.77-.7,1.54-2.08,2.3l.52.77v.38a3.34,3.34,0,0,0-3.12,1.92v.38l.52.77,1-.39h.52v.77c0,.51-.35.77-1,.77,0-.51-.52-.77-1.56-.77q-3.12,1.53-3.12,1.92l.52.76-.52.77q.25,1.53,1.56,1.53V313q-3.64,3.84-4.16,3.84c0-.51-.35-.77-1-.77h-.52c0,.38-.7,1.41-2.08,3.07v1.15q-1.31,0-4.16,3.45c-.52.06-1.56,1.47-3.12,4.21.34,0,.52.13.52.38-1.39,0-2.08.77-2.08,2.3H435l-2.6,1.92c-.52,0-1-.38-1.56-1.15q1.17,0,4.68-5.75,6.11-8.43,8.84-10.35,0-.76,16.12-19.92,6.75-9.78,6.76-11.88c-1.74,0-2.6-.26-2.6-.77h-1l.52,1.92c-3.47,1.15-5.2,1.91-5.2,2.3h-1c-.35,0-.52-.13-.52-.39q-8.85,2.88-8.84,5.37H448l-1-.39q-2.22,3.17-9.36,5.75v1.15h-.52l-1-.38q0,.76-1.56,1.53v1.15c-.7,0-1.56.9-2.6,2.68a4.59,4.59,0,0,0-3.64,1.92,5.28,5.28,0,0,1,1.56.38c-.7,1.15-1.39,1.79-2.08,1.92v-1.53h-2.08c0,.57-.7,1.47-2.09,2.68v.77h.52l1-.39.53.77c-2.26.83-3.47,1.85-3.65,3.06q-14.3,11.7-19.76,18.4l-2.6.38c-3.12-1-5-2.17-5.72-3.45v-.38a68.45,68.45,0,0,0,9.36-10q19.77-18,25.49-34.11l-1-.38h-1.56c-3.39,1.79-5.29,2.68-5.73,2.68q-6.11,0-8.84,5-1.56,0-8.32,3.07c.35,0,.52.13.52.38-.34,0-.52.13-.52.38l-1-.38h-.52c0,2-1.9,3.64-5.72,5q-3,3.45-5.2,3.45-3,4.5-6.24,5,0,1.63-4.16,3.45,0,1.92-6.24,5-2.08,4.23-12,11.12h-1q-6.76-1-6.76-4.22c0-.64,1.56-3.06,4.68-7.28q5.2-6.14,19.24-31,2.73-2.68,5.2-2.68c3.12,1.59,4.68,2.62,4.68,3.06v.77q-5.6,6.61-14,22.61h.52q.78,0,11.44-8.81,26.52-17.73,33.28-18.4c3.47-1.28,5.72-1.92,6.77-1.92q9.36,1.16,9.36,4.6v1.15c-.7.64-1,1.15-1,1.54a2.49,2.49,0,0,1,.52,1.15c-1.82.51-2.86,1.15-3.12,1.91.69,0,1,.13,1,.39a2,2,0,0,1-2.08,1.53l.52.76v.39c0,.51-.35.76-1,.76l1,3.07c-.7.06-1,.32-1,.77l1,.38h.52a118.44,118.44,0,0,1,10.4-6.9q0-1.33,7.8-5.36,8.83-5.08,12-5.75C462,279.64,463.4,278.88,466.18,277.73ZM417.29,314.9v.38h1a2.51,2.51,0,0,1,.52-1.14h-.52C417.64,314.2,417.29,314.46,417.29,314.9Zm42.65-30.27v.76a5.38,5.38,0,0,1,2.6-1.15v-.38H461C460.28,283.92,459.94,284.18,459.94,284.63Zm2.6,14.56v.38h1.56V298C463.58,298,463.06,298.42,462.54,299.19Z"/><path class="cls-1" d="M712.93,195.24c3,.26,6.68.38,11.19.38h.51q.66,0,.66.39l1.29-.39q13,.67,13,1.15l1.17-.38q31.46,2.78,50.83,10,22.1,8.15,30.42,23.38a37.3,37.3,0,0,0,1.82,7.28h-.65a2.27,2.27,0,0,1,.65,1.15l-.65.77c0,.25.22.38.65.38q0,14.56-16.77,25.68,0,1.72-24.18,14.94-16.51,7.67-17.94,7.67-16.91,7.47-48.37,16.86-22.74,7.28-64.35,14.56,0,.87-17.42,3.07-2.47,1.14-48.88,7.28-17.43,1.81-17.43,4.21-1,0-14.3,8.43-4.41,1.92-6.11,1.92h-2.47q-4.54,0-4.94-1.15,14.82-7.66,15.47-8.81v-.39Q523.77,339,497.9,345.46l-18.59,6.14q-16.65,5-40.3,18,0,.76-8.07,2.68v.77h-1.29a2.12,2.12,0,0,1-1.83-2.3q1.44,0,7.42-5.37c.86,0,2.73-1.15,5.59-3.45q19-9.1,27.95-11.88.53-1.05,14.17-5,1.31-.68,17.42-5.36v.38q8.85-2.69,9.88-2.68l31.59-6.14q23.67-3.34,24.83-4.59L605,297.56v-.38H595.8q-35.62,0-57.08-16.1-8.06-7.38-8.06-14.56v-1.15q0-12.08,13.65-24.91a137,137,0,0,0,13.65-10q.78,0,16.77-8.43a284.68,284.68,0,0,1,46.42-15.72q22.23-4.68,36-6.51Q689,195.24,712.93,195.24Zm-277,173.22v.76h2.47c0-.51-.39-.76-1.17-.76Zm243-167.09V201q-39.78,5.37-48.36,8-23,5.36-29.77,8Q588.13,220,559.26,237q-21.18,15.33-21.19,28c0,.25.22.38.65.38l-.65,1.92v1.15q0,13.21,24.83,21.46a122.6,122.6,0,0,0,26.66,3.45h5.59q17.55,0,21.06-4.22,50.17-39.94,70.07-60.55A135.2,135.2,0,0,0,698,216.7q1-.48,5.59-7.28,3.25-4.6,6.24-5.75h.65c2.86,1,4.29,2.56,4.29,4.6l-14.3,16.48q-16,16.86-54.47,49.05Q629.86,286.55,628.56,288c-.61,0-1.22.51-1.82,1.53H628q26.38-6.31,42.12-14.18,15.08-5.18,32.24-19.54,1.83,0,2.47,4.21c-.6,0-1.64,1.67-3.12,5a136.13,136.13,0,0,1-32.89,17.24,217,217,0,0,1-52,13.8q-2.48,3.64-14.3,11.11,0,1-14.82,11.5,0,.57-7.41,6.13v.77q8.05-.77,9.23-1.54v.39l5.59-1.15,1.3.38q10.39-1.53,22.23-3.83v.38L644.16,316v.38q10-2.68,30.29-6.13A124.87,124.87,0,0,1,692.39,306q.14-.37,21.19-6.13a47.78,47.78,0,0,0,5.46-1.92l1.3.39q3.78-2.49,21.72-7.67,13.52-4.87,29.77-12.64,1.42,0,11.7-5.75,17.55-9.11,23.53-16.1,9.36-10.63,9.36-16.86v-3.83q0-20.22-43.42-30.66a272.7,272.7,0,0,0-55.78-5.75Q684.34,200.23,678.87,201.37Z"/><path class="cls-1" d="M827.34,280v1.15c-.52,0-1.21.51-2.08,1.53a5.15,5.15,0,0,0-1.56-.38c0,.89-1.38,1.53-4.16,1.91,0,.77-.34,1.15-1,1.15H818v-.76h-1l1,1.15q-4.54,1.05-12,5.74-4.42,0-9.36,4.22v1.92a4.49,4.49,0,0,0-2.08.76h-.52V298l1-1.15h-1c-.52,0-1,.38-1.56,1.15v.77h1c-1.3,1.53-2.17,2.3-2.6,2.3l-2.6-.39.52.77v1.15l-2.6.76-2.6-.38c0,.45-1.74,1.73-5.2,3.83l1,.39,1.56-.77c.69.07,1,.32,1,.77q-4.56,3.06-6.24,3.06v-.76h-.52c-.7.06-1,.32-1,.76.52,0,1,.39,1.56,1.15a119.83,119.83,0,0,0-17.68,17.25q-1.7,3.82-3.12,3.83h-1q-5.21-2.49-5.2-3.45,1.17-2.88,9.88-12.26l12.48-14.95q11.7-14.75,13-14.94h1a9.55,9.55,0,0,0,3.64,3.06q0,2.11-5.72,8.43v.39Q806.93,284.14,827.34,280Zm-43.16,24.14h1v.39c0,.57-.87.95-2.6,1.14v-.38C782.62,304.94,783.14,304.56,784.18,304.17Zm5.72-5V300h1.56c0-.51-.35-.77-1-.77Z"/><path class="cls-1" d="M840.86,277.54h2.08c2.08.89,3.12,1.53,3.12,1.91q-26.13,21-29.64,28.75-4.15,3.74-7.8,15.71v.76c0,2,.69,3.13,2.08,3.45q9.36-.86,23.4-9.19,19.11-11.79,49.93-37.18c.34,0,2.08-1.27,5.2-3.83h.52q5.85,0,6.76,3.83l-10.4,11.5c-1,.19-2.78,1.85-5.2,5a5.15,5.15,0,0,0-1.56.38,2.57,2.57,0,0,1,.52,1.15,67.42,67.42,0,0,0-8.32,9.58q-2.09,1.16-8.33,8.82a21.85,21.85,0,0,0-6.24,6.13l-1.56.77.52.76c-2.77,2.05-4.16,3.45-4.16,4.22-3.12,2.55-5,3.83-5.72,3.83a2.38,2.38,0,0,1,.52,1.15c0,.45-1,1.21-3.12,2.3.35,0,.52.13.52.38l-14.56,13.42a26.12,26.12,0,0,1-10.92,8.43c0,1.47-.87,2.36-2.6,2.68L809.66,368q-5.32,5.17-8.84,6.13a27.31,27.31,0,0,1-8.84,6.13q0,.57-1.56,1.92c-1.13,1.21-3.55,2.36-7.28,3.45a6.11,6.11,0,0,1-3.12,2.68l-1-.38q-4.43,4-6.76,4.59-2.73,3.25-11.44,6.14l-9.36,5a25,25,0,0,1-4.16-.77v.38l.52.77q-.13,1.53-6.24,3.83c0,.64-2.26,1.41-6.76,2.3a36.31,36.31,0,0,1-10.4,3.07q0,1.73-17.17,4.21-17.41-1.14-20.28-8l1-4.6-.52-.77c0-.89,1.39-3.45,4.16-7.66.61-1.79,1.3-2.69,2.08-2.69h.52c0,.77.35,1.15,1,1.15v.77h-2.08v.77l1,1.15c0,.51-.52.76-1.56.76a2.49,2.49,0,0,0,.52,1.15l-.52,1.92,1,.38c0-.25.18-.38.52-.38l.52.76h-2.08v.39l1.56,1.53v.38l-1,1.15c.7.07,1,.32,1,.77l-.52.77c.87,4.08,2.43,6.13,4.68,6.13.09.51.44.76,1,.76h1q7.41,0,22.37-4.59A260.21,260.21,0,0,0,766,389.82q18.59-11,26-16.48,19.37-14.94,19.76-14.94,0-1.25,9.88-8.82Q840.87,331,840.86,330q1.83-.09,6.76-6.9l15.6-15.71v-.77l-4.16,2.68c-.34,0-.52.13-.52.39.35,0,.52.13.52.38q-16.63,11-16.64,11.5-1.95,0-6.76,3.83-11.82,6.9-22.88,6.9-12-2.59-12-8.43,0-14.37,26-37.56Q836.57,277.55,840.86,277.54ZM695.25,391.35l.52.77c0,.51-.34.77-1,.77l-.52-.77A.91.91,0,0,1,695.25,391.35Zm132.61-41.77v.77c.52,0,1-.38,1.56-1.15A5.15,5.15,0,0,1,827.86,349.58Z"/><path class="cls-1" d="M875.45,331.57h.39c.6.07.91.29.91.67l-.91.29-.39-.67Zm5.46-1.72h1.69c-.26,1.15-1.43,1.72-3.51,1.72v-.38C879.09,330.87,879.69,330.42,880.91,329.85Zm56.68-50.78q3.25,0,6.37,4v.29c0,.32-.48.64-1.43,1a30.54,30.54,0,0,0-5.33-.58q-19.77,3.27-32.89,11.88a3.38,3.38,0,0,0-1.43,2.4q3.38,1.81,28.47,5.27,3.38,0,8.58,5.65v.29q0,5.65-23.53,13c-.78.7-3.17,1.69-7.15,3l-.52-.67h.91v-.39h-.91c0,1-1.48,2.05-4.42,3.07-.61,0-.91-.22-.91-.67s.73-.86,2.21-1v-.29h-1.82L902,326.59a3.87,3.87,0,0,0-1.69-.38l-.52.67c1.47.19,2.21.51,2.21,1a6.34,6.34,0,0,1-2.6.67h-1.43c-.26,0-.39-.1-.39-.29l-.91.29-.91-.29-.52.67h.91v.67a5.1,5.1,0,0,0-1.3.29l-2.21-.29-5.85,1.63-3.25.67v-.29a2,2,0,0,0,.52-1.05,2,2,0,0,1-.52-1q2.34-1.44,27-9.68,13.77-5.46,14.43-6.32,6.88-2.58,7.67-5.27-5.07-1.62-20.28-3.35Q897,302.06,897,295.36q0-2.69,8.58-7Q927.06,279.08,937.59,279.07ZM907,324.19l-.52.68H908C908,324.42,907.64,324.19,907,324.19Z"/><path class="cls-1" d="M1074.23,257.42h.52q0,3.45-3.64,3.45c0,.64-.87,1-2.6,1.15l.52.76c0,.39-1.74,1.41-5.2,3.07,0,1.28-.35,1.92-1,1.92v-.39c-1.39.39-2.08.77-2.08,1.15.34,0,.52.13.52.38q-2.22,0-17.16,12.65a177.13,177.13,0,0,1-15.08,13l-1.56-.77h-.52a4.87,4.87,0,0,1-1.56,2.69h1v.76l-2.6-.38a49.42,49.42,0,0,0-9.88,11.5h.52a5.21,5.21,0,0,1,2.08-.39c-1.13,1.28-1.82,1.92-2.08,1.92l.52.77a4.34,4.34,0,0,1-2.6,2.29c-.7,0-1-.5-1-1.53-.7.07-1,.32-1,.77V313c1,0,1.56.26,1.56.77,0,.9-1.22,3.2-3.64,6.9l-1,2.68v1.92c0,.77,2.42,1.28,7.28,1.53v.77c-.61,0-2.35.89-5.2,2.68a8.47,8.47,0,0,1-5.73-2.68c-1.73-.58-2.6-2.49-2.6-5.75q0-3.65,9.89-16.1c0-2,1.9-4.08,5.72-6.13l-.52-.76V298c1.38,0,3.64-1,6.76-3.07l-1-.38a14.84,14.84,0,0,0-3.64,1.92c-.52,0-1-.39-1.56-1.15V295a23.15,23.15,0,0,0,6.24-4.21,15.54,15.54,0,0,0,6.76-5H1029q-25.37,2.69-33.29,6.51-2.07,0-9.36,2.3h-1.56l.52.77c-2.77,1.4-4.16,2.3-4.16,2.68h-1v-.77h-1c0,.9-.69,1.54-2.08,1.92q-10.65,5.74-11.44,5.75,0,.85-5.2,3.83-4.68,2.78-12,10.73c-2.42,3.51-3.64,5.56-3.64,6.13v1.53a4.94,4.94,0,0,1,1.56.39q10.28,0,37.44-14.18,1.31,0,8.32-4.6,5.21-2,5.2-2.68a115,115,0,0,0,12.49-6.9l1.56,1.92-1,.38-2.6-.38-.52.76v.77h1V303c-1.74.64-2.61,1.15-2.61,1.54,0,1-1.9,1.78-5.72,2.29q0,2.4-3.12,3.45a2.55,2.55,0,0,1-2.6,1.54l.52.76V313c-.69,0-1-.25-1-.76q-9.48,4.59-9.88,4.6-1.56.48-1.56,1.53h-.52l.52.77v.38a5.12,5.12,0,0,0-2.6.77l-1-.39-.52.77c.7.06,1,.32,1,.77l-1,.38h-2.6v.38l.52.77q-2.6,2.3-10.4,4.6-9,5-16.12,5-7.8,0-11.44-6.51,0-10.83,25-25.3a42,42,0,0,1,9.88-4.21q0-1.92,15.6-7.28,10.92-5.28,33.29-7.67H1028c1.38,1.28,2.25,1.92,2.6,1.92l-.52,1.91v.39q15.85-13.32,16.64-13.42c.69,0,1-.38,1-1.15h.52c.52,0,1,.52,1.56,1.54-2.08.32-3.12.7-3.12,1.15s.43.76,1,.76h1c3.46-1.59,5.2-3.13,5.2-4.6q4.68-1.53,4.68-2.29a38.07,38.07,0,0,1,6.24-4.6c0-.77,1-1.28,3.12-1.54q0-2.1,5.2-2.3V259c-1.39,0-2.08-.25-2.08-.77l1-.38,1,.38C1073.27,257.67,1073.62,257.42,1074.23,257.42ZM988.94,314.9h1.56v.38c-.86,1.28-1.56,1.92-2.08,1.92h-1v-1.15C988.42,316.05,988.94,315.67,988.94,314.9Zm3.64-1.15h.52v.77h-1.56A.91.91,0,0,1,992.58,313.75Zm13,6.52-.52,1.91,1,.39.53-1.92v-.38Zm2.09-15.33h.52v.38c0,.51-.35.77-1,.77l-.52-.77Zm-.52,11.49v.77h1.56v-.77Zm6.76-19.54c1.38.38,2.08.77,2.08,1.15a5.28,5.28,0,0,0-2.6,1.15h-2.6v-.77Q1010.79,297.76,1013.91,296.89Zm-2.6,12.65v.38c.08.51.43.77,1,.77h.52c.69,0,1-.26,1-.77Zm6.24-3.45.52.76h-1.56C1016.59,306.34,1016.94,306.09,1017.55,306.09Zm2.08-3.45h1v.76c0,.39-.52.77-1.56,1.16v-.39A2.46,2.46,0,0,0,1019.63,302.64Zm5.2-4.6,1,.38c-.26.71-1.65,2-4.16,3.84h-.52v-1.15Q1024.18,298,1024.83,298Zm6.76-8.05h-.52l-1-.38c0,1.79-.87,2.68-2.6,2.68v.77h.52q2.6,0,4.68-3.45c.52,0,1-.38,1.56-1.15v-.38h-.52C1032.28,288.78,1031.59,289.42,1031.59,290Zm4.16-4.6-.52,1.54c.69,0,1-.39,1-1.15v-.39Zm16.64-16.86.52,1.92-1,.38h-2.6v-1.15C1049.61,268.91,1050.65,268.53,1052.39,268.53Zm13-10.73h.52l1,.38q-2.22,3.07-4.68,3.07v.38l.52.77-1,.38c0-.25-.18-.38-.52-.38q-5.46,5.66-8.32,5.75l-.52-.77,2.6-2.68a11.2,11.2,0,0,1,4.68-1.92l-.52-.76q2.6-3.45,5.2-3.45C1064.43,258.06,1064.78,257.8,1065.39,257.8Zm9.36-6.9c.69.07,1,.32,1,.77-.43,0-1.47.89-3.12,2.68q-1.44,0-4.68,2.3h-.52V255.5l5.2-4.6Zm6.24.77h1c.69.06,1,.32,1,.77v.38a26.23,26.23,0,0,1-7.8,4.21V255.5Zm5.2-9.58h.52c.69,0,1,.38,1,1.15q0,.76-5.2,3.06,0,1.63-4.68,3.84v.38h-1c0-.51-.35-.77-1-.77V249A102.83,102.83,0,0,0,1086.19,242.09Zm4.16,4.6h.52v.38q-1.42,2.3-5.72,3.45a5.1,5.1,0,0,0-2.6-.77V249c0-.51.52-.77,1.56-.77h1.56a.91.91,0,0,1,1-.77l2.6.39C1089.31,247.07,1089.66,246.69,1090.35,246.69ZM1120,219.48h1q.53,0,3.64,4.21c.35,0,.52.13.52.39q0,3.06-6.24,3.06a44.48,44.48,0,0,1-8.84,5.75q0,1.25-4.16,2.3c0,.77-.35,1.15-1,1.15s-1-.25-1-.77v-.76a7.61,7.61,0,0,1,3.64-3.07H1106c-1.39,0-3.81,1.53-7.28,4.6q-2.48.28-8.32,5.37l-1.56.76-.52-.76v-.39c0-2.11,1.56-3.38,4.68-3.83,0-1.34,1.56-2.74,4.68-4.22q0-.66,4.16-3.06a70.76,70.76,0,0,1,9.88-5.75Q1112.06,223.5,1120,219.48Zm-28.6,25.29h2.08c0,.32-.87,1-2.6,1.92l-.52-.77v-.38A.91.91,0,0,1,1091.39,244.77Zm3.12-2.68c0,.26.17.38.52.38a2.42,2.42,0,0,0-.52,1.15h-1v-.76A.91.91,0,0,1,1094.51,242.09Zm9.36-6.13.52.76q-3.51,2.21-3.64,3.45h-1c-.69,0-1-.25-1-.76A5.67,5.67,0,0,1,1103.87,236Zm3.12-5v.38h.52a5.32,5.32,0,0,1,2.6-1.15v-.77h-1C1108.55,229.44,1107.86,230,1107,231Zm13.52-3.84h1.56v1.15h-.52c-.69,0-1-.25-1-.76Z"/><path class="cls-1" d="M1135.07,280.22h.65l4.42,3.26V284a62.85,62.85,0,0,1-9.49,6.51,3.16,3.16,0,0,0-.65,1.92h-1.3l-1.3-.48c0,.32-.21.48-.65.48l.65,1v.47a5.68,5.68,0,0,0-2.6.87l-1.17-.48c0,1-1.3,1.43-3.9,1.43v.48a1.22,1.22,0,0,0,1.3,1,6.35,6.35,0,0,1,2-.48v.48q0,.68-2,1.44c0-.64-.43-1-1.3-1h-1.3q0,1-4.42,2.78,0,.48-7.67,5.65c.43,0,.65.16.65.48q-3.12,1-3.12,3.26l.65,2.39a5.32,5.32,0,0,0-2.6-1q-2.48.1-7,5.66l-4.42,2.78c.87.06,1.3.38,1.3.95a19.49,19.49,0,0,0-5.72,7c-.35,0-1.21.8-2.6,2.39v3.74c1.3,1,2,1.79,2,2.3-.69,1.28-1.34,1.91-2,1.91h-.65q-4.43-1.53-4.42-4.21v-1.44q0-5,10.14-14.08a127.08,127.08,0,0,1,9-9.39v-.86h-1.3l-2,.86h-.65l-1.82-.86c0,.25-.22.38-.65.38l.65,1v.48q-.52,0-3.9.48a5.26,5.26,0,0,0-1.82-.48q-14.68,10.35-17.29,10.82V321l-1.17-.48H1067V321h1.17q-20.28,11.22-27.3,11.21h-2q-11.44-1.62-11.44-7.47,0-10.54,37.57-31.9,19.11-9.39,25.48-9.39h1.3q6.38,0,18.72,3.54-27.3,3.25-44.85,11.88a101.53,101.53,0,0,1-12.09,7.09q-18.46,14.47-18.46,19.26a2.6,2.6,0,0,1,.65,1.34q7,0,27.3-8.91l31.2-15.9,17.81-9.39Q1131.7,280.22,1135.07,280.22Zm-42,26.73v.48h2.47c.87,0,1.3-.32,1.3-1v-1h-.65A6.58,6.58,0,0,1,1093.08,307Zm5.07-5.17v2.78l4.42.47.65-.95v-1.82Q1098.68,301.78,1098.15,301.78Zm0,5.17v.48H1100a2.67,2.67,0,0,1,.65-1.44h-1.17C1098.58,306.06,1098.15,306.38,1098.15,307Z"/><path class="cls-1" d="M1222.18,209.13h1c.69.07,1,.32,1,.77q0,2-12,16.86l-21.84,27.59-12,13.8q-2.73,2.69-16.65,19.54a424.41,424.41,0,0,0-27.56,32.58q-6.11,7.47-9.36,9.58a5.23,5.23,0,0,0-4.16,2.3l-2.08.38-.52-.77q12-19.92,38-48.28,10.66-13.23,20.29-24.15l9.88-11.88q11.43-14.26,11.44-14.56A205.39,205.39,0,0,0,1212.3,213q3-3.06,5.72-3.06h1c.34,0,.52.13.52.38Z"/><path class="cls-1" d="M1187.08,298h1.56v.38q-3.65,3-3.64,3.84h-3.12c0,.7-.52,1.47-1.56,2.3l-1-.39q-1.44,0-3.64,3.07-3.26,1.53-4.16,3.06v.77l3.12-1.15.52.77q-2.47,3.06-3.64,3.06,0,.67-4.16,6.13a7.4,7.4,0,0,0-1,4.22q0,3.45,9.88,3.45,11.82,0,33.28-4.6l4.68-.77v1.15c0,.51-.35.77-1,.77l-3.12-.38c-1.74.95-2.6,1.72-2.6,2.3v.38l-1.56-.77h-.52q0,1.64-17.16,4.6c0,.77-1.39,1.15-4.16,1.15V331h-2.08v.38h1v.77h-.52l-2.6-.39c0,.52-.35.77-1,.77h-.52c-.35,0-.52-.13-.52-.38-.35,0-.52.13-.52.38q-12.09,0-17.16-8.81c0-1.47-.18-2.37-.53-2.69q0-4.59,16.65-18,6.1-3.82,8.32-3.83c.08.51.43.77,1,.77h1l-1-1.15Zm-13,10.73h1.56v.77h-1.56Zm8.32-3.83v.38c0,.32-.87.83-2.6,1.53h-.52l-.52-1.53h.52c.34,0,.52.13.52.38A6.91,6.91,0,0,1,1182.4,304.94Zm4.16-3.07h1c0,.32-.87,1-2.6,1.92h-.52v-.39C1184.48,303,1185.17,302.51,1186.56,301.87ZM1224,282.33h1q8.31,1.62,8.32,7.28-3.78,8-19.76,15.71-8.32,3.84-12.48,3.83-7.15,0-9.88-5.75c.08-.51.43-.76,1-.76a13.51,13.51,0,0,0,5.2,1.15q10.65,0,28.08-13.8l1-2.68v-.38l-10.4,1.53v-.77h-1c-2.43,1.09-3.64,1.86-3.64,2.3l-1-.38h-1.56a20.13,20.13,0,0,1-6.24,1.91c0,.26-.87.9-2.6,1.92a5.43,5.43,0,0,0-2.08-.38,2.53,2.53,0,0,1-.52,1.15c.34,0,.52.13.52.38l-2.6,1.15h-3.12a2.7,2.7,0,0,1-1,1.92c-2.43-.32-3.64-.71-3.64-1.15q9.09-4.69,12-6.52,1.68-.28,11.44-4.6a39.09,39.09,0,0,0,7.8-2.68Zm-35.36,18.39v1.15h-1v-.38C1187.68,301,1188,300.72,1188.64,300.72Zm.52-1.15a4.94,4.94,0,0,0,1.56.39c0,.51-.35.76-1,.76h-1v-.38Zm3.64-1.53h1c0,.51-.35.77-1,.77h-1C1191.84,298.3,1192.19,298,1192.8,298ZM1199,295l.52.77-1.56.77-.52-.77Z"/><path class="cls-1" d="M264,196q19.5,0,24.7,5.56v1.34q0,3.65-21.71,14.66a107.43,107.43,0,0,0-12.61,6.13q-.78,0-15.6,6.9l-32,13.6H205c-3.56-1.08-5.33-2.11-5.33-3.06q0-.59,43.29-19.16,36.79-16.77,36.79-21a66.67,66.67,0,0,0-12.09-.86q-33.41,0-84.24,10-19.11,3.44-48.76,13-9.09,2.77-27.69,11.11-16.91,9.87-16.9,14.94,0,7.09,31.85,8.53a108.68,108.68,0,0,1,10.92.86c.35,0,.52-.09.52-.28q11.58.28,14.57.57c.34,0,.52-.09.52-.29l4.29.29h15.6c1.47,0,3.29.1,5.46.29a8.28,8.28,0,0,1,1.82-.29,49.91,49.91,0,0,1,6.5.58,7.71,7.71,0,0,1,1.82-.29v.29l1.3-.29,3.51.29a9.89,9.89,0,0,1,2.47-.29,8.28,8.28,0,0,0,1.82.29c.34,0,.52-.1.52-.29q60.84,2.58,60.84,4.12,4.95,0,18.07,3.83a45.58,45.58,0,0,1,15.08,7.28,33.84,33.84,0,0,0,3,5,10.93,10.93,0,0,1-1.83,4.7,1.33,1.33,0,0,1,.66,1.05q-.92.1-7.29,7c-.6.12-2,1-4.16,2.68.35,0,.52.09.52.29q-.65,0-14.95,7.47-23.53,9.76-36.14,12.45-16.77,5.18-42.77,9.78-39.66,6.6-51.75,6.61,0,.48-23.53,1.62c0,.2-.17.29-.52.29l-3.12-.29c-6.33.39-9.92.58-10.79.58q-28.33-1-28.34-1.92l-1.17.29A137.37,137.37,0,0,1,42,327.21q-12.87-4.12-18.07-11.69V313.6a6.83,6.83,0,0,0-.65-2.49,1.75,1.75,0,0,0,.65-1.63l-.65-.57q2.46-4,4.16-4.41l3.12.19v.58a3,3,0,0,1-1.82,2.49c.34,0,.52.09.52.29q-1.17.09-1.17.57l1.17.86a11.76,11.76,0,0,1-1.82.19V310h1.82v2.2c0,.52.43,1.09,1.3,1.73a6.13,6.13,0,0,0-.65,2.49c2,.83,3,1.57,3,2.2-.44,0-.65.1-.65.29q10.14,7,19.37,7.76,4.93,1.64,19.24,2.78,21.19.76,23.4.77,27.69-1.06,53.05-3.84l4.81-1.15h4.16q0-1.05,11.44-1.62,2.07-.68,12.74-2.5,0-.37,12.61-2.49,26.52-6.12,37.31-9.39,10-3.26,12.09-4.5,14.7-5.65,17.94-7.47,21.19-10.25,21.19-19.35,0-6.14-21.19-10-9.09-1.9-28.21-3.35-31.73-1.64-33.67-1.63c-.87,0-1.3.1-1.3.29q-26.52-.87-47.58-.86a8.24,8.24,0,0,1-1.69-.29c-.44,0-.65.09-.65.29a302.24,302.24,0,0,1-48.24-3.84q-16.77-4.11-16.77-12.74v-.29a34.79,34.79,0,0,1,13.26-11q3.76-3.65,24.7-11.4,45.9-17.25,110.12-24.63Q255.07,196,264,196ZM34.7,297.79c.78.07,1.17.26,1.17.58v.29a7.71,7.71,0,0,0-3,2.49,8.37,8.37,0,0,1-1.82.29v.76a10.77,10.77,0,0,0-1.17,2.3h-.65a1.7,1.7,0,0,1-1.82-1.15,31.08,31.08,0,0,0,4.29-4.12A10.57,10.57,0,0,1,34.7,297.79Zm4.16-3.25h1.3V295c-1.22.51-1.82,1.08-1.82,1.72h-.65q-1.17,0-1.17-.57v-.29C38.08,295.24,38.86,294.79,38.86,294.54Z"/><path class="cls-1" d="M377.27,281.22h.65l4.42,3.26V285a62.85,62.85,0,0,1-9.49,6.51,3.16,3.16,0,0,0-.65,1.92h-1.3l-1.3-.48c0,.32-.22.48-.65.48l.65,1v.47a5.68,5.68,0,0,0-2.6.87l-1.17-.48c0,1-1.3,1.43-3.9,1.43v.48a1.21,1.21,0,0,0,1.3,1,6.35,6.35,0,0,1,1.95-.48v.48q0,.68-1.95,1.44c0-.64-.43-1-1.3-1h-1.3q0,1-4.42,2.78,0,.48-7.67,5.65c.43,0,.65.16.65.48-2.08.64-3.12,1.72-3.12,3.26l.65,2.39a5.32,5.32,0,0,0-2.6-1q-2.47.1-7,5.66l-4.42,2.78c.86.06,1.3.38,1.3.95a19.39,19.39,0,0,0-5.72,7c-.35,0-1.22.8-2.6,2.39v3.74c1.3,1,1.95,1.79,1.95,2.3-.7,1.28-1.35,1.91-1.95,1.91H325q-4.42-1.53-4.42-4.21v-1.44q0-5,10.14-14.08a127.08,127.08,0,0,1,9-9.39v-.86h-1.3l-1.95.86h-.65l-1.82-.86c0,.25-.22.38-.65.38l.65,1v.48q-.53,0-3.9.48a5.26,5.26,0,0,0-1.82-.48q-14.7,10.35-17.29,10.82V322l-1.17-.48h-.65V322h1.17Q290,333.25,283,333.24h-1.95q-11.43-1.62-11.44-7.47,0-10.54,37.58-31.9,19.11-9.39,25.48-9.39H334q6.36,0,18.72,3.54-27.3,3.25-44.85,11.88A101.53,101.53,0,0,1,295.76,307q-18.47,14.47-18.47,19.26a2.52,2.52,0,0,1,.65,1.34q7,0,27.31-8.91l31.2-15.9,17.81-9.39Q373.9,281.22,377.27,281.22Zm-42,26.73v.48h2.47c.86,0,1.3-.32,1.3-1v-1h-.65A6.58,6.58,0,0,1,335.28,308Zm5.07-5.17v2.77l4.42.48.65-.95v-1.82Q340.86,302.78,340.35,302.78Zm0,5.17v.48h1.82a2.6,2.6,0,0,1,.65-1.44h-1.17C340.78,307.06,340.35,307.37,340.35,308Z"/><path class="cls-1" d="M472.18,278.73h2.08q2.34,0,7.8,3.45,0,5-4.68,8.43h-.52l-1-.38v1.15c1,0,1.56.25,1.56.76a5.25,5.25,0,0,1-2.08.38l.52.77v.38c-2.17,0-3.38,1-3.64,3.07h-1v1.15c1.38,0,2.08.26,2.08.77-2.52,2.55-3.9,3.83-4.16,3.83v-.77H467c0,.77-.7,1.54-2.08,2.3l.52.77v.38a3.34,3.34,0,0,0-3.12,1.92v.38l.52.77,1-.39h.52v.77c0,.51-.35.77-1,.77,0-.51-.52-.77-1.56-.77q-3.12,1.53-3.12,1.92l.52.76-.52.77q.25,1.53,1.56,1.53V314q-3.64,3.84-4.16,3.84c0-.51-.35-.77-1-.77h-.52c0,.38-.7,1.41-2.08,3.07v1.15q-1.31,0-4.16,3.45c-.52.06-1.56,1.47-3.12,4.21.34,0,.52.13.52.38-1.39,0-2.08.77-2.08,2.3H441l-2.6,1.92c-.52,0-1-.38-1.56-1.15q1.17,0,4.68-5.75,6.11-8.43,8.84-10.35,0-.76,16.12-19.92,6.75-9.78,6.76-11.88c-1.74,0-2.6-.26-2.6-.77h-1l.52,1.92c-3.47,1.15-5.2,1.91-5.2,2.3h-1c-.35,0-.52-.13-.52-.39q-8.85,2.88-8.84,5.37H454l-1-.39q-2.22,3.17-9.36,5.75v1.15h-.52l-1-.38q0,.76-1.56,1.53v1.15c-.7,0-1.56.9-2.6,2.68a4.59,4.59,0,0,0-3.64,1.92,5.28,5.28,0,0,1,1.56.38c-.7,1.15-1.39,1.79-2.08,1.92v-1.53h-2.08c0,.57-.7,1.47-2.09,2.68v.77h.52l1-.39.53.77c-2.26.83-3.47,1.85-3.65,3.06q-14.3,11.7-19.76,18.4l-2.6.38c-3.12-1-5-2.17-5.72-3.45v-.38a68.45,68.45,0,0,0,9.36-10q19.77-18,25.49-34.11l-1-.38h-1.56c-3.39,1.79-5.29,2.68-5.73,2.68q-6.11,0-8.84,5-1.56,0-8.32,3.07c.35,0,.52.13.52.38-.34,0-.52.13-.52.38l-1-.38h-.52c0,2-1.9,3.64-5.72,5q-3,3.45-5.2,3.45-3,4.5-6.24,5,0,1.63-4.16,3.45,0,1.92-6.24,5-2.08,4.23-12,11.12h-1q-6.76-1-6.76-4.22c0-.64,1.56-3.06,4.68-7.28q5.2-6.14,19.24-31,2.73-2.68,5.2-2.68c3.12,1.59,4.68,2.62,4.68,3.06v.77q-5.6,6.61-14,22.61h.52q.78,0,11.44-8.81,26.52-17.73,33.28-18.4c3.47-1.28,5.72-1.92,6.77-1.92q9.36,1.16,9.36,4.6v1.15c-.7.64-1,1.15-1,1.54a2.49,2.49,0,0,1,.52,1.15c-1.82.51-2.86,1.15-3.12,1.91.69,0,1,.13,1,.39a2,2,0,0,1-2.08,1.53l.52.76v.39c0,.51-.35.76-1,.76l1,3.07c-.7.06-1,.32-1,.77l1,.38h.52a118.44,118.44,0,0,1,10.4-6.9q0-1.33,7.8-5.36,8.83-5.08,12-5.75C468,280.64,469.4,279.88,472.18,278.73ZM423.29,315.9v.38h1a2.51,2.51,0,0,1,.52-1.14h-.52C423.64,315.2,423.29,315.46,423.29,315.9Zm42.65-30.27v.76a5.38,5.38,0,0,1,2.6-1.15v-.38H467C466.28,284.92,465.94,285.18,465.94,285.63Zm2.6,14.56v.38h1.56V299C469.58,299,469.06,299.42,468.54,300.19Z"/><path class="cls-1" d="M718.93,196.24c3,.26,6.68.38,11.19.38h.51q.66,0,.66.39l1.29-.39q13,.67,13,1.15l1.17-.38q31.46,2.78,50.83,10,22.1,8.15,30.42,23.38a37.3,37.3,0,0,0,1.82,7.28h-.65a2.27,2.27,0,0,1,.65,1.15l-.65.77c0,.25.22.38.65.38q0,14.56-16.77,25.68,0,1.72-24.18,14.94-16.51,7.67-17.94,7.67-16.91,7.47-48.37,16.86-22.74,7.28-64.35,14.56,0,.87-17.42,3.07-2.47,1.14-48.88,7.28-17.43,1.81-17.43,4.21-1,0-14.3,8.43-4.41,1.92-6.11,1.92h-2.47q-4.54,0-4.94-1.15,14.82-7.66,15.47-8.81v-.39Q529.77,340,503.9,346.46l-18.59,6.14q-16.65,5-40.3,18,0,.76-8.07,2.68v.77h-1.29a2.12,2.12,0,0,1-1.83-2.3q1.44,0,7.42-5.37c.86,0,2.73-1.15,5.59-3.45q19-9.1,27.95-11.88.53-1.05,14.17-5,1.31-.68,17.42-5.36v.38q8.85-2.69,9.88-2.68l31.59-6.14q23.67-3.34,24.83-4.59L611,298.56v-.38H601.8q-35.62,0-57.08-16.1-8.06-7.38-8.06-14.56v-1.15q0-12.08,13.65-24.91a137,137,0,0,0,13.65-10q.78,0,16.77-8.43a284.68,284.68,0,0,1,46.42-15.72q22.23-4.69,36-6.51Q695,196.24,718.93,196.24Zm-277,173.22v.76h2.47c0-.51-.39-.76-1.17-.76Zm243-167.09V202q-39.78,5.37-48.36,8-23,5.36-29.77,8Q594.13,221,565.26,238q-21.18,15.33-21.19,28c0,.25.22.38.65.38l-.65,1.92v1.15q0,13.21,24.83,21.46a122.6,122.6,0,0,0,26.66,3.45h5.59q17.55,0,21.06-4.22,50.17-39.94,70.07-60.55A135.2,135.2,0,0,0,704,217.7q1-.48,5.59-7.28,3.25-4.6,6.24-5.75h.65c2.86,1,4.29,2.56,4.29,4.6l-14.3,16.48q-16,16.86-54.47,49.05Q635.86,287.55,634.56,289c-.61,0-1.22.51-1.82,1.53H634q26.38-6.31,42.12-14.18,15.08-5.18,32.24-19.54,1.83,0,2.47,4.21c-.6,0-1.64,1.67-3.12,5a136.48,136.48,0,0,1-32.89,17.24,217,217,0,0,1-52,13.8q-2.48,3.64-14.3,11.11,0,1-14.82,11.5,0,.57-7.41,6.13v.77c5.37-.52,8.45-1,9.23-1.54v.39l5.59-1.15,1.3.38q10.39-1.53,22.23-3.83v.38L650.16,317v.38q10-2.68,30.29-6.13A124.87,124.87,0,0,1,698.39,307q.14-.37,21.19-6.13a47.78,47.78,0,0,0,5.46-1.92l1.3.39q3.78-2.49,21.72-7.67,13.52-4.89,29.77-12.64,1.42,0,11.7-5.75,17.55-9.11,23.53-16.1,9.36-10.63,9.36-16.86v-3.83q0-20.22-43.42-30.66a272.7,272.7,0,0,0-55.78-5.75Q690.34,201.23,684.87,202.37Z"/><path class="cls-1" d="M833.34,281v1.15c-.52,0-1.21.51-2.08,1.53a5.15,5.15,0,0,0-1.56-.38c0,.89-1.38,1.53-4.16,1.91,0,.77-.34,1.15-1,1.15H824v-.76h-1l1,1.15q-4.54,1.05-12,5.74-4.42,0-9.36,4.22v1.92a4.49,4.49,0,0,0-2.08.76h-.52V299l1-1.15h-1c-.52,0-1,.38-1.56,1.15v.77h1c-1.3,1.53-2.17,2.29-2.6,2.29l-2.6-.38.52.77v1.15l-2.6.76-2.6-.38c0,.45-1.74,1.73-5.2,3.83l1,.39,1.56-.77c.69.06,1,.32,1,.77q-4.56,3.06-6.24,3.06v-.76h-.52c-.7.06-1,.32-1,.76.52,0,1,.39,1.56,1.15a119.83,119.83,0,0,0-17.68,17.25q-1.7,3.82-3.12,3.83h-1q-5.21-2.49-5.2-3.45,1.17-2.88,9.88-12.26l12.48-14.95q11.7-14.75,13-14.94h1a9.55,9.55,0,0,0,3.64,3.06q0,2.11-5.72,8.43v.39Q812.93,285.14,833.34,281Zm-43.16,24.14h1v.38c0,.58-.87,1-2.6,1.15v-.38C788.62,305.94,789.14,305.55,790.18,305.17Zm5.72-5V301h1.56c0-.52-.35-.77-1-.77Z"/><path class="cls-1" d="M846.86,278.54h2.08c2.08.89,3.12,1.53,3.12,1.91q-26.13,21-29.64,28.74-4.15,3.75-7.8,15.72v.76c0,2,.69,3.13,2.08,3.45q9.36-.86,23.4-9.19,19.11-11.79,49.93-37.18c.34,0,2.08-1.27,5.2-3.83h.52q5.85,0,6.76,3.83l-10.4,11.5c-1,.19-2.78,1.85-5.2,5a5.15,5.15,0,0,0-1.56.38,2.57,2.57,0,0,1,.52,1.15,67.42,67.42,0,0,0-8.32,9.58q-2.09,1.16-8.33,8.82a21.85,21.85,0,0,0-6.24,6.13l-1.56.77.52.76c-2.77,2.05-4.16,3.45-4.16,4.22-3.12,2.55-5,3.83-5.72,3.83a2.38,2.38,0,0,1,.52,1.15c0,.45-1,1.21-3.12,2.3.35,0,.52.13.52.38l-14.56,13.42a26.12,26.12,0,0,1-10.92,8.43c0,1.47-.87,2.36-2.6,2.68L815.66,369q-5.32,5.17-8.84,6.13a27.31,27.31,0,0,1-8.84,6.13q0,.57-1.56,1.92c-1.13,1.21-3.55,2.36-7.28,3.45a6.11,6.11,0,0,1-3.12,2.68l-1-.38q-4.43,4-6.76,4.59-2.73,3.25-11.44,6.14l-9.36,5a25,25,0,0,1-4.16-.77v.38l.52.77q-.13,1.53-6.24,3.83c0,.64-2.26,1.41-6.76,2.3a36.31,36.31,0,0,1-10.4,3.07q0,1.73-17.17,4.21-17.41-1.14-20.28-8l1-4.6-.52-.77c0-.89,1.39-3.45,4.16-7.66.61-1.79,1.3-2.69,2.08-2.69h.52c0,.77.35,1.15,1,1.15v.77h-2.08v.77l1,1.15c0,.51-.52.76-1.56.76a2.49,2.49,0,0,0,.52,1.15l-.52,1.92,1,.38c0-.25.18-.38.52-.38l.52.76h-2.08v.39l1.56,1.53v.38l-1,1.15c.7.07,1,.32,1,.77l-.52.77c.87,4.08,2.43,6.13,4.68,6.13.09.51.44.76,1,.76h1q7.41,0,22.37-4.59A260.21,260.21,0,0,0,772,390.82q18.59-11,26-16.48,19.37-14.94,19.76-14.94,0-1.25,9.88-8.82Q846.87,332,846.86,331q1.83-.09,6.76-6.9l15.6-15.71v-.77l-4.16,2.68c-.34,0-.52.13-.52.39.35,0,.52.13.52.38q-16.63,11-16.64,11.5-1.95,0-6.76,3.83-11.82,6.9-22.88,6.9-12-2.59-12-8.43,0-14.37,26-37.56Q842.57,278.55,846.86,278.54ZM701.25,392.35l.52.77c0,.51-.34.77-1,.77l-.52-.77A.91.91,0,0,1,701.25,392.35Zm132.61-41.77v.77c.52,0,1-.38,1.56-1.15A5.15,5.15,0,0,1,833.86,350.58Z"/><path class="cls-1" d="M881.45,332.57h.39c.6.07.91.29.91.67l-.91.29-.39-.67Zm5.46-1.72h1.69c-.26,1.15-1.43,1.72-3.51,1.72v-.38C885.09,331.87,885.69,331.42,886.91,330.85Zm56.68-50.78q3.25,0,6.37,4v.29c0,.32-.48.64-1.43,1a30.54,30.54,0,0,0-5.33-.58q-19.77,3.27-32.89,11.88a3.38,3.38,0,0,0-1.43,2.4q3.38,1.81,28.47,5.27,3.38,0,8.58,5.65v.29q0,5.65-23.53,13c-.78.7-3.17,1.69-7.15,3l-.52-.67h.91v-.39h-.91c0,1-1.48,2.05-4.42,3.07-.61,0-.91-.22-.91-.67s.73-.86,2.21-1v-.29h-1.82L908,327.59a3.87,3.87,0,0,0-1.69-.38l-.52.67c1.47.19,2.21.51,2.21,1a6.34,6.34,0,0,1-2.6.67h-1.43c-.26,0-.39-.1-.39-.29l-.91.29-.91-.29-.52.67h.91v.67a5.1,5.1,0,0,0-1.3.29l-2.21-.29-5.85,1.63-3.25.67v-.29a2,2,0,0,0,.52-1.05,2,2,0,0,1-.52-1q2.34-1.44,27-9.68,13.77-5.46,14.43-6.32,6.88-2.58,7.67-5.27-5.07-1.62-20.28-3.35Q903,303.06,903,296.36q0-2.69,8.58-7Q933.06,280.08,943.59,280.07ZM913,325.19l-.52.67H914C914,325.42,913.64,325.19,913,325.19Z"/><path class="cls-1" d="M1080.23,258.42h.52q0,3.45-3.64,3.45c0,.64-.87,1-2.6,1.15l.52.76c0,.39-1.74,1.41-5.2,3.07,0,1.28-.35,1.91-1,1.91v-.38c-1.39.38-2.08.77-2.08,1.15.34,0,.52.13.52.38q-2.22,0-17.16,12.65a177.13,177.13,0,0,1-15.08,13l-1.56-.77h-.52a4.87,4.87,0,0,1-1.56,2.69h1v.76l-2.6-.38a49.42,49.42,0,0,0-9.88,11.5h.52a5.21,5.21,0,0,1,2.08-.39c-1.13,1.28-1.82,1.92-2.08,1.92l.52.77a4.34,4.34,0,0,1-2.6,2.29c-.7,0-1-.5-1-1.53-.7.07-1,.32-1,.77V314c1,0,1.56.26,1.56.77,0,.9-1.22,3.2-3.64,6.9l-1,2.68v1.92c0,.77,2.42,1.28,7.28,1.53v.77c-.61,0-2.35.89-5.2,2.68a8.47,8.47,0,0,1-5.73-2.68c-1.73-.58-2.6-2.49-2.6-5.75q0-3.65,9.89-16.1c0-2,1.9-4.08,5.72-6.13l-.52-.76V299c1.38,0,3.64-1,6.76-3.07l-1-.38a14.84,14.84,0,0,0-3.64,1.92c-.52,0-1-.39-1.56-1.15V296a23.15,23.15,0,0,0,6.24-4.21,15.54,15.54,0,0,0,6.76-5H1035q-25.37,2.67-33.29,6.51-2.07,0-9.36,2.3h-1.56l.52.77c-2.77,1.4-4.16,2.3-4.16,2.68h-1v-.77h-1c0,.9-.69,1.54-2.08,1.92q-10.65,5.74-11.44,5.75,0,.85-5.2,3.83-4.68,2.78-12,10.73c-2.42,3.51-3.64,5.56-3.64,6.13v1.53a4.94,4.94,0,0,1,1.56.39q10.28,0,37.44-14.18,1.31,0,8.32-4.6c3.47-1.34,5.2-2.24,5.2-2.68a115,115,0,0,0,12.49-6.9l1.56,1.91-1,.39-2.6-.39-.52.77v.77h1V304q-2.61,1-2.61,1.53c0,1-1.9,1.79-5.72,2.3q0,2.4-3.12,3.45a2.55,2.55,0,0,1-2.6,1.54l.52.76V314c-.69,0-1-.25-1-.76q-9.48,4.59-9.88,4.6-1.56.48-1.56,1.53h-.52l.52.77v.38a5.12,5.12,0,0,0-2.6.77l-1-.39-.52.77c.7.06,1,.32,1,.77l-1,.38h-2.6v.38l.52.77q-2.6,2.3-10.4,4.6-9,5-16.12,5-7.8,0-11.44-6.51,0-10.83,25-25.3a41.63,41.63,0,0,1,9.88-4.21q0-1.92,15.6-7.28,10.92-5.28,33.29-7.67H1034c1.38,1.28,2.25,1.92,2.6,1.92l-.52,1.91v.39q15.85-13.32,16.64-13.42c.69,0,1-.38,1-1.15h.52c.52,0,1,.52,1.56,1.54-2.08.32-3.12.7-3.12,1.15s.43.76,1,.76h1c3.46-1.59,5.2-3.13,5.2-4.6,3.12-1,4.68-1.78,4.68-2.3a38.6,38.6,0,0,1,6.24-4.59c0-.77,1-1.28,3.12-1.54q0-2.1,5.2-2.3V260c-1.39,0-2.08-.25-2.08-.77l1-.38,1,.38C1079.27,258.67,1079.62,258.42,1080.23,258.42ZM994.94,315.9h1.56v.38c-.86,1.28-1.56,1.92-2.08,1.92h-1v-1.15C994.42,317.05,994.94,316.67,994.94,315.9Zm3.64-1.15h.52v.77h-1.56A.91.91,0,0,1,998.58,314.75Zm13,6.52-.52,1.91,1,.39.53-1.92v-.38Zm2.09-15.33h.52v.38c0,.51-.35.77-1,.77l-.52-.77Zm-.52,11.49v.77h1.56v-.77Zm6.76-19.54c1.38.38,2.08.77,2.08,1.15a5.28,5.28,0,0,0-2.6,1.15h-2.6v-.77C1016.79,299,1017.83,298.46,1019.91,297.89Zm-2.6,12.65v.38c.08.51.43.77,1,.77h.52c.69,0,1-.26,1-.77Zm6.24-3.45.52.76h-1.56C1022.59,307.34,1022.94,307.09,1023.55,307.09Zm2.08-3.45h1v.76c0,.39-.52.77-1.56,1.15v-.38A2.46,2.46,0,0,0,1025.63,303.64Zm5.2-4.6,1,.38c-.26.71-1.65,2-4.16,3.84h-.52V302.1Q1030.18,299,1030.83,299Zm6.76-8.05h-.52l-1-.38c0,1.79-.87,2.68-2.6,2.68v.77h.52q2.6,0,4.68-3.45c.52,0,1-.38,1.56-1.15v-.38h-.52C1038.28,289.78,1037.59,290.42,1037.59,291Zm4.16-4.6-.52,1.54c.69,0,1-.39,1-1.15v-.39Zm16.64-16.86.52,1.92-1,.38h-2.6v-1.15C1055.61,269.91,1056.65,269.53,1058.39,269.53Zm13-10.73h.52l1,.38q-2.22,3.07-4.68,3.07v.38l.52.77-1,.38c0-.25-.18-.38-.52-.38q-5.46,5.66-8.32,5.75l-.52-.77,2.6-2.68a11.2,11.2,0,0,1,4.68-1.92l-.52-.76q2.6-3.45,5.2-3.45C1070.43,259.06,1070.78,258.8,1071.39,258.8Zm9.36-6.9c.69.07,1,.32,1,.77-.43,0-1.47.89-3.12,2.68q-1.44,0-4.68,2.3h-.52V256.5l5.2-4.6Zm6.24.77h1c.69.06,1,.32,1,.77v.38a26.23,26.23,0,0,1-7.8,4.21V256.5Zm5.2-9.58h.52c.69,0,1,.38,1,1.15q0,.76-5.2,3.06,0,1.63-4.68,3.84v.38h-1c0-.51-.35-.77-1-.77V250A102.83,102.83,0,0,0,1092.19,243.09Zm4.16,4.6h.52v.38q-1.42,2.3-5.72,3.45a5.1,5.1,0,0,0-2.6-.77V250c0-.51.52-.77,1.56-.77h1.56a.91.91,0,0,1,1-.77l2.6.39C1095.31,248.07,1095.66,247.69,1096.35,247.69ZM1126,220.48h1q.53,0,3.64,4.21c.35,0,.52.13.52.39q0,3.06-6.24,3.06a44.48,44.48,0,0,1-8.84,5.75q0,1.25-4.16,2.3c0,.77-.35,1.15-1,1.15s-1-.25-1-.77v-.76a7.61,7.61,0,0,1,3.64-3.07H1112c-1.39,0-3.81,1.53-7.28,4.6q-2.48.28-8.32,5.37l-1.56.76-.52-.76v-.39c0-2.11,1.56-3.38,4.68-3.83q0-2,4.68-4.22,0-.66,4.16-3.06a70.76,70.76,0,0,1,9.88-5.75Q1118.06,224.5,1126,220.48Zm-28.6,25.29h2.08c0,.32-.87,1-2.6,1.92l-.52-.77v-.38A.91.91,0,0,1,1097.39,245.77Zm3.12-2.68c0,.25.17.38.52.38a2.42,2.42,0,0,0-.52,1.15h-1v-.77C1099.56,243.34,1099.9,243.09,1100.51,243.09Zm9.36-6.13.52.76q-3.51,2.21-3.64,3.45h-1c-.69,0-1-.25-1-.76A5.67,5.67,0,0,1,1109.87,237Zm3.12-5v.38h.52a5.32,5.32,0,0,1,2.6-1.15v-.77h-1C1114.55,230.44,1113.86,231,1113,232Zm13.52-3.84h1.56v1.15h-.52c-.69,0-1-.25-1-.76Z"/><path class="cls-1" d="M1141.07,281.22h.65l4.42,3.26V285a62.85,62.85,0,0,1-9.49,6.51,3.16,3.16,0,0,0-.65,1.92h-1.3l-1.3-.48c0,.32-.21.48-.65.48l.65,1v.47a5.68,5.68,0,0,0-2.6.87l-1.17-.48c0,1-1.3,1.43-3.9,1.43v.48a1.22,1.22,0,0,0,1.3,1,6.35,6.35,0,0,1,2-.48v.48q0,.68-2,1.44c0-.64-.43-1-1.3-1h-1.3q0,1-4.42,2.78,0,.48-7.67,5.65c.43,0,.65.16.65.48-2.08.64-3.12,1.72-3.12,3.26l.65,2.39a5.32,5.32,0,0,0-2.6-1q-2.48.1-7,5.66l-4.42,2.78c.87.06,1.3.38,1.3.95a19.49,19.49,0,0,0-5.72,7c-.35,0-1.21.8-2.6,2.39v3.74c1.3,1,2,1.79,2,2.3-.69,1.28-1.34,1.91-2,1.91h-.65q-4.43-1.53-4.42-4.21v-1.44q0-5,10.14-14.08a127.08,127.08,0,0,1,9-9.39v-.86h-1.3l-2,.86h-.65l-1.82-.86c0,.25-.22.38-.65.38l.65,1v.48q-.52,0-3.9.48a5.26,5.26,0,0,0-1.82-.48q-14.68,10.35-17.29,10.82V322l-1.17-.48H1073V322h1.17q-20.28,11.22-27.3,11.21h-2q-11.44-1.62-11.44-7.47,0-10.54,37.57-31.9,19.11-9.39,25.48-9.39h1.3q6.38,0,18.72,3.54-27.3,3.25-44.85,11.88a101.53,101.53,0,0,1-12.09,7.09q-18.46,14.47-18.46,19.26a2.6,2.6,0,0,1,.65,1.34q7,0,27.3-8.91l31.2-15.9,17.81-9.39Q1137.7,281.22,1141.07,281.22Zm-42,26.73v.48h2.47c.87,0,1.3-.32,1.3-1v-1h-.65A6.58,6.58,0,0,1,1099.08,308Zm5.07-5.17v2.77l4.42.48.65-.95v-1.82Q1104.68,302.78,1104.15,302.78Zm0,5.17v.48H1106a2.67,2.67,0,0,1,.65-1.44h-1.17C1104.58,307.06,1104.15,307.37,1104.15,308Z"/><path class="cls-1" d="M1228.18,210.13h1c.69.07,1,.32,1,.77q0,2-12,16.86l-21.84,27.59-12,13.8q-2.73,2.69-16.65,19.54a424.41,424.41,0,0,0-27.56,32.58q-6.11,7.47-9.36,9.58a5.23,5.23,0,0,0-4.16,2.3l-2.08.38-.52-.77q12-19.92,38-48.28,10.66-13.23,20.29-24.15l9.88-11.88q11.43-14.26,11.44-14.56A205.39,205.39,0,0,0,1218.3,214q3-3.06,5.72-3.06h1c.34,0,.52.13.52.38Z"/><path class="cls-1" d="M1193.08,299h1.56v.38q-3.65,3-3.64,3.84h-3.12c0,.7-.52,1.47-1.56,2.29l-1-.38q-1.44,0-3.64,3.07-3.26,1.53-4.16,3.06v.77l3.12-1.15.52.77q-2.47,3.06-3.64,3.06,0,.67-4.16,6.13a7.4,7.4,0,0,0-1,4.22q0,3.45,9.88,3.45,11.82,0,33.28-4.6l4.68-.77v1.15c0,.51-.35.77-1,.77l-3.12-.38c-1.74.95-2.6,1.72-2.6,2.3v.38l-1.56-.77h-.52q0,1.64-17.16,4.6c0,.77-1.39,1.15-4.16,1.15V332h-2.08v.38h1v.77h-.52l-2.6-.39c0,.51-.35.77-1,.77h-.52c-.35,0-.52-.13-.52-.38-.35,0-.52.12-.52.38q-12.09,0-17.16-8.81c0-1.47-.18-2.37-.53-2.69q0-4.59,16.65-18,6.1-3.82,8.32-3.83c.08.51.43.77,1,.77h1l-1-1.15Zm-13,10.73h1.56v.77h-1.56Zm8.32-3.83v.38c0,.32-.87.83-2.6,1.53h-.52l-.52-1.53h.52c.34,0,.52.13.52.38A6.91,6.91,0,0,1,1188.4,305.94Zm4.16-3.07h1c0,.32-.87,1-2.6,1.92h-.52v-.39C1190.48,304,1191.17,303.51,1192.56,302.87ZM1230,283.33h1q8.31,1.62,8.32,7.28-3.78,8-19.76,15.71-8.32,3.84-12.48,3.83-7.15,0-9.88-5.75c.08-.51.43-.76,1-.76a13.51,13.51,0,0,0,5.2,1.15q10.65,0,28.08-13.8l1-2.68v-.38l-10.4,1.53v-.77h-1c-2.43,1.09-3.64,1.86-3.64,2.3l-1-.38h-1.56a20.13,20.13,0,0,1-6.24,1.91c0,.26-.87.9-2.6,1.92a5.43,5.43,0,0,0-2.08-.38,2.53,2.53,0,0,1-.52,1.15c.34,0,.52.13.52.38l-2.6,1.15h-3.12a2.7,2.7,0,0,1-1,1.92c-2.43-.32-3.64-.71-3.64-1.15q9.09-4.69,12-6.52,1.68-.28,11.44-4.6a39.75,39.75,0,0,0,7.8-2.68Zm-35.36,18.39v1.15h-1v-.38C1193.68,302,1194,301.72,1194.64,301.72Zm.52-1.15a4.94,4.94,0,0,0,1.56.39c0,.51-.35.76-1,.76h-1v-.38Zm3.64-1.53h1c0,.51-.35.77-1,.77h-1C1197.84,299.3,1198.19,299,1198.8,299ZM1205,296l.52.77-1.56.77-.52-.77Z"/></svg>