<?xml version="1.0" encoding="UTF-8"?>
<svg id="Layer_1" data-name="Layer 1" xmlns="http://www.w3.org/2000/svg" viewBox="0 0 258 162">
  <defs>
    <style>
      .cls-1 {
        stroke-width: 0px;
      }
    </style>
  </defs>
  <path class="cls-1" d="M72.04,66.52c-1.92-.24-3.75-.41-5.56-.7-3.48-.56-6.98-1.08-10.41-1.84-2.69-.6-5.14-1.86-7.27-3.65-1.92-1.62-3.13-3.64-3.31-6.21-.04-.64.08-1.19.41-1.74,1.91-3.18,4.19-6.02,7.31-8.12.53-.36.91-.93,1.43-1.31,1.7-1.21,3.36-2.49,5.16-3.53,9.5-5.55,19.48-10.09,29.85-13.78,11.35-4.04,22.96-7.05,34.78-9.35,6.15-1.2,12.33-2.21,18.56-2.91,3.68-.41,7.38-.75,11.08-1.04,1.54-.12,3.1-.1,4.64.01,1.56.12,3.09.03,4.63-.18,6.18-.84,12.39-1.37,18.63-1.4,2.63-.01,5.25.2,7.88.31,1.24.05,2.48.07,3.72.15,1.22.08,2.46.12,3.65.37,1.7.35,3.41.13,5.12.37,6.57.92,13.07,2.13,19.4,4.14,5.1,1.61,9.99,3.68,14.47,6.65,5.4,3.58,9.62,8.2,12.44,14.06.52,1.08.86,2.19,1.01,3.39.14,1.14.46,2.25.64,3.39.11.74.3,1.49-.01,2.23-.03.07-.07.15-.05.21.66,1.97.07,3.9-.31,5.8-.73,3.62-2.33,6.87-4.57,9.8-2.23,2.92-4.72,5.64-7.49,8.03-6.59,5.67-13.65,10.7-21.34,14.81-9.94,5.32-20.18,9.97-30.63,14.19-11.31,4.58-23,7.87-34.81,10.78-1.33.33-2.67.59-3.99.96-.96.27-1.87.74-2.84.97-1.85.45-3.73.77-5.6,1.18-2.53.55-5.04,1.19-7.58,1.69-5.93,1.17-11.88,2.26-17.81,3.42-5.44,1.06-10.87,2.17-16.3,3.27-.75.15-1.43.49-1.86,1.19-.09.15-.21.29-.35.39-2.59,2.06-5.22,4.08-7.78,6.17-2.28,1.86-4.82,2.48-7.67,1.9-.39-.08-.75-.33-1.33-.6.48-.36.78-.59,1.08-.81,2.28-1.64,4.56-3.27,6.83-4.93.5-.37.94-.82,1.41-1.24-.04-.07-.08-.13-.12-.2-1.23.19-2.48.29-3.69.57-4.38,1.02-8.78,1.98-13.11,3.18-5.82,1.61-11.62,3.32-17.37,5.16-2.63.84-5.12,2.09-7.66,3.21-4.12,1.81-8.3,3.46-12.26,5.63-5.69,3.13-11.12,6.66-16.31,10.55-1.4,1.05-2.92,1.64-4.5,2.21-.38.14-.81.15-1.04.65-.18.41-.9.34-1.3-.06-.38-.37-.55-.83-.46-1.4,1.51-.99,2.64-2.39,3.85-3.72.31-.34.71-.58,1.06-.88.74-.62,1.47-1.26,2.22-1.88.55-.46,1.07-.97,1.68-1.33,4.08-2.42,8.12-4.94,12.31-7.17,2.84-1.51,5.61-3.21,8.64-4.39,4.32-1.68,8.56-3.58,12.92-5.18,2-.73,4.05-1.32,6.05-2.08.26-.1.53-.2.78-.43-.57.05-1.15.09-1.72.15-2.77.29-5.53.28-8.31.06-3.73-.3-7.48-.48-11.19-.91-1.51-.17-3.04-.26-4.55-.53-4.09-.76-8.05-1.91-11.91-3.44-4.24-1.68-7.84-4.22-10.42-8.08-.66-.98-1.15-1.97-1-3.21.05-.41-.07-.86-.15-1.28-.09-.46-.21-.89.06-1.35.11-.2.18-.57.07-.72-.51-.74-.01-1.3.28-1.88.24-.48.53-.94.84-1.39.37-.53.79-1.03,1.56-1.01-.18-.31-.32-.56-.46-.81.06-.12.1-.22.16-.3.7-.91,1.37-1.86,2.13-2.72.49-.56,1.09-1.03,1.69-1.47.41-.3.51-.22,1.13.25-.6.74-1.18,1.5-1.83,2.2-.22.23-.64.28-.96.4-.24.67-.48,1.34-.72,2.01-.09.26-.19.45.11.73.18.17.14.77,0,1.07-.32.68-.77,1.31-1.24,2.07.07.1.22.33.4.62-.24.12-.48.24-.85.42.42.06.68.09,1.04.14,0,.47-.04.93.01,1.39.04.38.07.84.29,1.12.4.52.45,1.01.25,1.6-.11.33-.11.7-.14.96.57.82,2.05.88,1.54,2.34,2.92,2.63,6.04,4.98,9.97,5.96,2.44.61,4.87,1.28,7.33,1.76,3,.59,6.05.91,9.12,1.01,3.13.1,6.26.36,9.39.4,2.59.03,5.18-.1,7.77-.28,4.02-.28,8.04-.68,12.06-1,3.81-.3,7.56-1,11.29-1.8,3.09-.67,6.18-1.38,9.27-2.06,1.52-.33,2.74-1.07,3.85-2.2,7.12-7.24,14.3-14.43,21.45-21.63.25-.25.48-.52.85-.91-.43-.06-.69-.12-.95-.12-1.98-.01-3.96.02-5.94-.02-7.23-.13-14.25-1.31-20.91-4.27-4.45-1.98-8.52-4.57-11.95-8.02-3.54-3.56-5.72-7.82-5.65-13,0-.39,0-.78,0-1.2ZM140.16,108.22s.02.09.03.13c.58-.05,1.19-.02,1.75-.17,4.31-1.16,8.59-2.39,12.91-3.52,2.64-.69,5.29-1.31,7.86-2.3,1.97-.76,4.06-1.23,6.09-1.83.59-.17,1.2-.26,1.77-.48,3.16-1.2,6.32-2.42,9.47-3.64,1.91-.74,3.81-1.51,5.71-2.27.51-.21.97-.65,1.6-.3.1.06.34-.06.48-.15,2.79-1.9,5.92-3.1,9.01-4.39,1.59-.67,3.22-1.25,4.79-1.98,6.69-3.14,12.96-7.05,19.26-10.87,4.43-2.68,8.54-5.87,12.57-9.15,4.65-3.78,7.98-8.53,10.64-13.85,2.08-4.16,2.28-8.51,1.74-12.96-.5-4.15-2.5-7.61-5.37-10.6-2.44-2.55-5.3-4.53-8.38-6.22-6.73-3.69-13.96-5.88-21.46-7.35-4.92-.96-9.86-1.72-14.86-2.08-3.34-.24-6.7-.45-10.04-.37-4.89.12-9.78.5-14.67.78-.58.03-1.15.13-1.86.22.5.45.84.77,1.2,1.07.95.78.94,1.83.53,2.84-.19.49-.5.97-.86,1.36-.84.93-1.69,1.88-2.64,2.69-1.73,1.47-3.49,2.91-5.32,4.24-2.01,1.46-4.08,2.83-6.19,4.14-2.99,1.87-5.87,3.9-8.87,5.75-8.22,5.06-16.64,9.77-24.97,14.63-.3.18-.64.36-.98.42-1.32.21-3.51-1.02-4.11-2.28-.03-.05.01-.14.03-.31.54-.36,1.12-.78,1.73-1.15,3.91-2.36,7.83-4.73,11.75-7.07,6.62-3.94,13.37-7.67,19.8-11.92,4.03-2.66,8.07-5.3,11.76-8.43.98-.84,1.88-1.78,2.77-2.72.44-.46.8-1.01.84-1.77-.66-.13-1.29-.33-1.92-.38-1.28-.1-2.61-.34-3.86-.13-4.68.79-9.35,1.67-14,2.66-3.9.83-7.83,1.66-11.62,2.87-6.64,2.12-13.33,4.12-19.73,6.96-2.83,1.26-5.65,2.52-8.29,4.13-4.78,2.9-9.25,6.24-13.74,9.56-3.1,2.29-5.79,4.97-8.25,7.89-2.63,3.13-4.94,6.47-6.39,10.33-.4,1.06-.68,2.17-1.05,3.36.51.05.86.1,1.21.1,2.73,0,5.44.35,8.18.27,3.2-.09,6.41.08,9.61.15,1.37.03,2.74.09,4.1.12,1.4.03,2.79,0,4.19.04,1.07.03,2.14.12,3.21.17,1,.05,2,.1,3.01.1,1.35,0,2.7-.14,4.05-.09,2.34.08,4.68.24,7.01.41,6.79.49,13.58.99,20.36,1.51.67.05,1.13-.1,1.59-.63,2.12-2.45,4.29-4.86,6.44-7.28,7.18-8.08,13.89-16.55,20.4-25.17,2.73-3.62,5.38-7.3,7.33-11.43.54-1.15,1.35-2.22,2.19-3.19,1.32-1.54,2.18-1.47,3.52.07.09.11.18.22.27.34.78,1.14.79,1.9.04,3.05-.14.21-.28.42-.41.63-2.8,4.24-5.49,8.54-8.41,12.69-3.89,5.54-8.21,10.76-12.6,15.92-4.15,4.89-8.38,9.7-12.56,14.56-.31.36-.76.65-.88,1.29,1.31.27,2.56.53,3.82.8,3.36.73,6.55,1.97,9.7,3.27.81.33,1.36.27,2.04-.24,4.19-3.1,7.94-6.67,11.47-10.48.31-.34.63-.67.93-.99.88.5,1.7,2.53,1.39,3.33-.02.07-.09.11-.12.18-.45.98-.95,1.93-1.33,2.94-.25.66-.58,1.21-1.13,1.66-2.4,1.96-4.78,3.94-7.17,5.91-.26.22-.53.43-.81.66.86.76,1.66,1.43,2.43,2.14.26.24.49.53.65.84.52,1.07,1.01,2.15,1.47,3.24.14.35.24.77.18,1.13-.13.78-.31,1.56-.58,2.3-.22.62-.42,1.19-.12,1.64-1.32,1.81-2.56,3.54-3.82,5.24-.29.4-.67.73-1.03,1.07-.54.52-1.1,1.04-1.66,1.54-.27.25-.19.65-.58.91-2.64,1.75-5.24,3.57-7.85,5.36-.36.24-.71.49-1.09.7-4.71,2.65-9.47,5.18-14.41,7.37-.29.13-.56.28-.85.42ZM76.75,66.86c-.03.56-.04.99-.07,1.41-.04.5-.16,1-.16,1.49,0,3.48,1.16,6.57,3.38,9.23,3.25,3.89,7.41,6.58,12.11,8.19,8.27,2.83,16.83,3.37,25.48,2.35,2.85-.34,5.28-1.35,7.31-3.65,4.61-5.24,9.47-10.26,14.23-15.37.33-.36.65-.73,1.04-1.17-.31-.06-.44-.11-.58-.12-3.23-.27-6.45-.55-9.68-.8-2.98-.23-5.96-.42-8.94-.61-1.58-.1-3.18-.35-4.74-.2-1.41.13-2.79.1-4.19.05-2.91-.09-5.83-.26-8.74-.32-5.44-.11-10.87-.17-16.31-.26-.53,0-1.07-.18-1.6-.18-.96.01-1.92.16-2.88.15-1.9-.03-3.81-.13-5.67-.19ZM102.18,115.66c.07.08.14.16.21.24.92-.14,1.85-.21,2.75-.43,2.86-.7,5.74-1.38,8.56-2.2,3.14-.92,6.25-1.95,9.35-3,4.67-1.57,9.35-3.1,13.88-5.07,4.04-1.76,7.75-4.1,11.64-6.13,3.81-1.99,7.36-4.37,10.68-7.1,2.01-1.66,3.85-3.47,5.32-5.63,1.09-1.59,1.86-3.31,2.17-5.24.33-2.05-.38-3.65-2.06-4.94-2.94,1.99-6.09,3.57-9.22,5.18-9.58,4.95-19.6,8.64-30.23,10.6-.46.08-.75.27-1.04.65-.9,1.16-1.79,2.35-2.83,3.39-1.55,1.55-3.22,2.98-4.84,4.46-.21.19-.48.35-.63.58-1.29,1.94-3.04,3.45-4.67,5.08-2.06,2.06-4.28,3.95-6.1,6.24-.71.9-1.61,1.65-2.39,2.49-.22.24-.36.55-.54.83ZM130.94,18.64s-.01-.07-.02-.11c-.21.02-.42.01-.62.06-4.33.91-8.67,1.75-12.98,2.74-9.75,2.23-19.4,4.84-28.69,8.63-6.23,2.54-12.52,4.93-18.41,8.22-2.7,1.51-5.39,3.05-8.03,4.65-1.23.74-2.4,1.59-3.51,2.49-2.29,1.86-4.5,3.83-6.3,6.19-.69.91-1.32,1.9-1.79,2.94-.85,1.9-.39,3.52,1.29,4.76.77.57,1.65,1.03,2.53,1.41,2.13.91,4.39,1.43,6.67,1.71,3.57.43,7.16.73,10.74,1.08.16.02.34-.04.5-.06.2-.82.36-1.59.57-2.35,1.38-5.05,4.04-9.43,7.26-13.5.13-.17.3-.31.45-.46,2.48-2.4,4.97-4.8,7.45-7.2.28-.27.58-.54.91-.75,1.08-.71,2.19-1.38,3.26-2.11,2.27-1.53,4.43-3.24,6.78-4.61,9.63-5.63,19.75-10.17,30.49-13.28.48-.14.95-.29,1.43-.44ZM130.46,86.88c.67-.11,1.09-.13,1.48-.26,2.01-.67,4.03-1.33,6.02-2.06,5.96-2.18,11.75-4.72,17.19-8.01,1.14-.69,2.31-1.31,3.47-1.97.49-.28.99-.56,1.62-.92-.52-.21-.88-.38-1.25-.5-1.2-.38-2.39-.81-3.61-1.1-2.8-.66-5.62-1.24-8.42-1.88-.77-.18-1.29.02-1.77.63-.58.74-1.23,1.41-1.87,2.1-3.15,3.37-6.3,6.73-9.45,10.09-.91.97-1.85,1.9-2.76,2.87-.21.22-.34.51-.66,1.01ZM14.08,151.1h1.68c-.2-.62-.65-.61-1.06-.55-.16.02-.29.25-.62.55Z"/>
  <path class="cls-1" d="M18.48,95.45c-.16-.02-.41.02-.57-.08-.13-.08-.27-.44-.22-.49.41-.39.85-.77,1.32-1.08.18-.12.46-.07.92-.13-.56.69-.98,1.21-1.44,1.78Z"/>
</svg>