<svg xmlns="http://www.w3.org/2000/svg" width="59.588" height="60.574" viewBox="0 0 59.588 60.574">
  <path id="Logo" d="M129.157,79.448c-2.019-2.178-2.1-6.667-.388-8.836a8.1,8.1,0,0,0-.143,5.008,5.511,5.511,0,0,0,4.559,4.191,5.672,5.672,0,0,0,5.63-8.4,31.133,31.133,0,0,0-3.848-4.279,14.265,14.265,0,0,0-1.471-1.175l2.967-3.131c3.424,3.04,6.794,5.992,6.727,11.08a8.815,8.815,0,0,1-5.316,7.8,7.327,7.327,0,0,1-2.6.47A8.429,8.429,0,0,1,129.157,79.448ZM115.283,80a112.53,112.53,0,0,1,10-11.071c3.559-3.433,7.055-6.93,10.607-10.425a2.883,2.883,0,0,1-.28-.553,6.87,6.87,0,0,1-.089-.772c.235-.021.471-.053.706-.06.34-.011.68,0,1.02,0l.081-.3a16.586,16.586,0,0,1-1.478-.929c-.18-.139-.221-.457-.327-.694.256-.024.551-.144.758-.056.628.27,1.223.62,1.831.94l.249-.4a14.224,14.224,0,0,1-1.178-.819,5.156,5.156,0,0,1-.635-.778c.347-.067.695-.135,1.044-.2a.151.151,0,0,1,.1.028c1.6,1.108,2.559.166,3.641-.958,2.884-2.993,5.949-5.817,8.754-8.879a28.5,28.5,0,0,0,2.413-2.353c-1.776-.619-3.165.589-4.739.951a6.65,6.65,0,0,1,5.14-5.41,6.4,6.4,0,0,1,2.549-.113,2.632,2.632,0,0,0,2.64-.942c1.361-1.376,2.692-2.786,4.115-4.1,3.188-2.934,6.422-5.817,9.645-8.713a1.863,1.863,0,0,1,.7-.36c-4.079,5.647-9.179,10.338-14.041,15.333.059.116.11.241.181.354a2.218,2.218,0,0,1,.113,2.617,2.613,2.613,0,0,1-2.595.949c-.533-.049-1.062-.15-1.593-.228l-.088.335c.286.149.581.284.858.447.726.427,1.3,1.022,1.1,1.9a1.887,1.887,0,0,1-.912,1.154c-.279.131-.861-.161-1.192-.415-.386-.3-.612-.793-.974-1.131-.164-.154-.594-.265-.715-.166-.166.137-.179.486-.209.751a5.976,5.976,0,0,0,.011.792,3.978,3.978,0,0,0-.751-.118,5.214,5.214,0,0,0-.829.152l.005.323c1.233.318,2.452.715,3.7.933,1.5.262,2.477-.457,3.036-2.045.862.751.867.764,1.306,3.308.243-.637.534-1.262.717-1.915.211-.753.259-1.557.512-2.293a5.534,5.534,0,0,1,.859-1.246c.359.393.913.736,1.032,1.192a7.307,7.307,0,0,1,.231,2.642c-.415,3.508-4.606,8.088-8.063,8.922-.238.058-.486.074-.807.121.8-1.184,1.613-2.233,2.263-3.371.82-1.436.671-2.724-.229-3.294-.929-.588-2.183-.1-3.167,1.238-.192.259-.37.528-.556.791-1.817,2.569-4.063,2.486-5.7-.307-1.369,1.382-2.732,2.733-4.055,4.122a1.224,1.224,0,0,0-.2.845c.047.671-.158.923-.868.788a3.345,3.345,0,0,0-1.1.244c.691.753,2.007.676,1.589,2.072l-2.241-.993c.7,1.264,2.532,1.119,2.408,2.877l-2.354-.957-.311.311c2.66,1.611,2.912,4.275,3.292,6.55l-4.727-7.2c-7.439,6.942-13.856,14.567-21.8,20.578a.116.116,0,0,1-.073.016C115.552,80.007,115.453,80,115.283,80Zm30.178-11.007c1.75-2.99,4.407-5.122,6.991-7.346,2.921-2.516,5.83-5.066,8.518-7.821a10.643,10.643,0,0,0,3.218-7.843A10.867,10.867,0,0,0,161,38.456l3.106-2.992a12.956,12.956,0,0,1,3.782,6.348c1.48,5.409,0,10.078-3.664,14.174-3.146,3.514-7.11,5.967-11.038,8.467a25.8,25.8,0,0,0-6.972,5.813,5.063,5.063,0,0,0-1.148,4.7C143.676,72.885,144.342,70.9,145.461,68.989Zm.732-5.969c.517-1.131,1.441-2.078,2.111-3.326L145.918,60.7c.034-1.66,1.684-1.642,2.29-2.492l-.126-.28a11.223,11.223,0,0,1-1.09.464,6.113,6.113,0,0,1-.932.152,2.926,2.926,0,0,1,.457-.972,13.778,13.778,0,0,1,1.387-.947c.087-.063.082-.257.183-.616-.567.158-.98.3-1.406.382-.253.048-.622.1-.761-.038a.862.862,0,0,1-.112-.763,4.468,4.468,0,0,1,1.08-1.7v.959a3.906,3.906,0,0,0,1.805-.47,3.5,3.5,0,0,1,2.595-.347l-2.2,1.695.263.4c.563-.306,1.111-.644,1.695-.9a2.852,2.852,0,0,1,.87-.092c-.129.288-.183.666-.4.846a20.244,20.244,0,0,1-1.711,1.168l.216.385a6.206,6.206,0,0,1,1.046-.331,4.319,4.319,0,0,1,.961.071,2.8,2.8,0,0,1-.336.821c-.835.965-1.688,1.916-2.576,2.833a15.2,15.2,0,0,0-3.4,5.4.731.731,0,0,1-.5.474A21.051,21.051,0,0,1,146.192,63.02ZM143.433,63c-.163-1.737-.189-3.5-.49-5.209A2.587,2.587,0,0,1,144,55.014a4.41,4.41,0,0,0,.61-.733l.339.151q-.471,5.468-.941,10.934l-.28.034C143.628,64.6,143.509,63.8,143.433,63ZM118.89,52.022a13.5,13.5,0,0,1,2.164-14.793,13.357,13.357,0,0,1,10.229-4.883,9.77,9.77,0,0,1,9.537,6.68,21.174,21.174,0,0,1,.443,2.176l-.316.076a8.039,8.039,0,0,0-3.139-4.728c-4.017-2.955-9.98-2.033-13.322,2.047-3.977,4.857-3.642,10.582,1.039,15.324,1.978,2,4.176,3.792,6.32,5.718l-3.074,3.01C124.819,59.742,121.034,56.618,118.89,52.022Zm9.45,1.487c-2.3-1.988-4.173-4.279-4.417-7.462a7.3,7.3,0,0,1,.425-2.5,1.109,1.109,0,0,1,.836-.661c.274.023.643.46.738.784.281.958.41,1.959.673,2.923a6.309,6.309,0,0,0,.827,1.721c.283-1.164.009-2.458,1.1-3.319.8,1.89,1.744,2.376,3.8,1.92,1.048-.233,2.066-.628,3.122-.788a3.962,3.962,0,0,1,4.7,3.212,2.931,2.931,0,0,1-1.629,3.2,2.663,2.663,0,0,1-3.464-.776c-.369-.437-.655-.942-1.021-1.381a6.723,6.723,0,0,0-1.117-1.144A1.753,1.753,0,0,0,130.1,51.21a37.136,37.136,0,0,0,2.246,3.745c.122.193.41.279.623.415l-.2.327A8.519,8.519,0,0,1,128.34,53.509ZM142.422,41.1c.761-5.085,4.238-7.82,9.05-9.006a12.929,12.929,0,0,1,7.305.185,31.48,31.48,0,0,1-3.259,3.442c-.563.454-1.626.309-2.467.4-4.549.47-7.407,3.167-7.467,7.721-.035,2.58-1.166,4.171-3.235,5.762C142.35,46.621,142.017,43.8,142.422,41.1Zm-11.73,4.677c-.4-.3-.849-1.119-.695-1.436a3.669,3.669,0,0,1,1.6-1.679c1.384-.625,2.789-.129,4.164.442a5.526,5.526,0,0,0-3.729,2.36,1.491,1.491,0,0,1-1.031.385A.533.533,0,0,1,130.693,45.775Zm7.9-3.312c-2.144-1.319-4.385-1.017-6.651-.434a10.352,10.352,0,0,1-1.264.238,2.482,2.482,0,0,1-2.611-1.281,2.426,2.426,0,0,1,.865-2.859,6.035,6.035,0,0,1,4.909-.925,6.828,6.828,0,0,1,5.452,5.426A2.684,2.684,0,0,1,138.588,42.463Z" transform="translate(-114.247 -22.105)" fill="#fff" stroke="rgba(0,0,0,0)" stroke-miterlimit="10" stroke-width="1"/>
</svg>
