<svg xmlns="http://www.w3.org/2000/svg" width="30.881" height="30.88" viewBox="0 0 30.881 30.88">
  <path id="spotify" d="M15.693.277a15.44,15.44,0,1,0,15.44,15.44A15.44,15.44,0,0,0,15.693.277h0Zm7.081,22.269a.962.962,0,0,1-1.324.319c-3.625-2.214-8.189-2.716-13.564-1.488A.963.963,0,0,1,7.458,19.5c5.882-1.344,10.927-.765,15,1.722A.962.962,0,0,1,22.774,22.546Zm1.89-4.2a1.2,1.2,0,0,1-1.656.4,20.263,20.263,0,0,0-15.386-1.8,1.2,1.2,0,1,1-.7-2.3,22.526,22.526,0,0,1,17.345,2.052,1.2,1.2,0,0,1,.4,1.655Zm.162-4.378C19.85,11.008,11.64,10.736,6.888,12.178A1.444,1.444,0,1,1,6.05,9.414C11.5,7.758,20.571,8.078,26.3,11.48a1.444,1.444,0,1,1-1.473,2.484Z" transform="translate(-0.253 -0.277)" fill="#fff" />
</svg>
