<?xml version="1.0" standalone="no"?>
<!DOCTYPE svg PUBLIC "-//W3C//DTD SVG 20010904//EN"
 "http://www.w3.org/TR/2001/REC-SVG-20010904/DTD/svg10.dtd">
<svg version="1.0" xmlns="http://www.w3.org/2000/svg"
 width="3000.000000pt" height="3000.000000pt" viewBox="0 0 3000.000000 3000.000000"
 preserveAspectRatio="xMidYMid meet">
<metadata>
Created by potrace 1.14, written by Peter Selinger 2001-2017
</metadata>
<g transform="translate(0.000000,3000.000000) scale(0.100000,-0.100000)"
fill="#000000" stroke="none">
<path d="M0 15000 l0 -15000 15000 0 15000 0 0 15000 0 15000 -15000 0 -15000
0 0 -15000z m20005 5800 c50 -5 202 -13 338 -16 185 -5 250 -10 254 -20 3 -10
12 -9 40 3 30 12 57 13 182 3 245 -18 452 -40 526 -55 54 -12 76 -12 101 -3
38 14 292 -17 684 -82 1975 -328 3164 -987 3770 -2086 109 -198 145 -294 164
-429 15 -101 55 -306 81 -407 6 -22 4 -28 -9 -28 -14 0 -14 -4 1 -36 16 -34
16 -37 0 -66 -21 -37 -22 -58 0 -58 14 0 15 -13 10 -132 -24 -500 -208 -962
-553 -1393 -49 -60 -157 -178 -241 -261 -84 -84 -153 -155 -153 -159 0 -63
-515 -485 -1206 -987 -225 -164 -834 -531 -1049 -633 -136 -65 -139 -66 -320
-167 -325 -181 -833 -428 -1325 -645 -513 -227 -1415 -594 -1780 -726 -708
-256 -1603 -515 -2651 -768 -217 -52 -395 -100 -409 -110 -50 -35 -265 -86
-695 -164 -143 -26 -291 -58 -330 -70 -176 -59 -961 -214 -2171 -429 -231 -41
-542 -102 -690 -135 -148 -32 -361 -79 -473 -102 -224 -48 -293 -76 -321 -135
-8 -17 -38 -44 -67 -63 -70 -43 -288 -214 -550 -432 -170 -141 -233 -187 -310
-227 -159 -80 -178 -84 -376 -80 -160 3 -176 5 -222 28 -27 14 -51 32 -53 41
-2 10 60 59 190 149 352 246 668 486 668 509 0 13 -463 -66 -665 -114 -809
-190 -1706 -440 -2435 -677 -98 -32 -355 -137 -700 -288 -300 -130 -597 -259
-660 -286 -268 -113 -695 -339 -1025 -542 -393 -241 -1038 -680 -1108 -754
-35 -37 -137 -85 -310 -144 -134 -45 -137 -47 -137 -75 0 -27 -3 -29 -40 -29
-23 0 -55 7 -71 16 -35 17 -68 82 -69 130 0 26 5 33 26 38 31 8 196 166 306
293 54 63 93 99 121 111 47 21 143 102 227 191 40 43 110 93 255 183 529 330
965 576 1245 704 69 31 140 70 158 86 47 41 259 140 517 243 121 48 258 105
305 127 65 30 542 223 893 360 22 8 31 8 36 0 5 -8 54 7 161 49 85 34 207 79
270 101 98 34 108 39 65 34 -27 -3 -158 -13 -291 -22 -227 -16 -259 -16 -570
0 -763 40 -1171 78 -1259 118 -16 7 -32 7 -53 0 -23 -8 -62 -5 -169 13 -431
73 -1027 256 -1328 408 -337 170 -589 384 -774 660 -88 131 -101 167 -101 281
0 54 -7 124 -15 156 -13 51 -13 61 0 86 20 39 19 103 -2 126 -16 18 -15 22 16
86 51 104 118 207 156 241 27 24 46 31 78 32 37 0 39 2 20 11 -12 6 -28 24
-36 41 -15 30 -15 31 44 101 33 38 89 112 126 164 51 72 83 105 136 143 70 49
102 58 138 39 32 -18 22 -49 -30 -96 -27 -24 -65 -68 -85 -98 -32 -48 -41 -55
-86 -66 -43 -10 -50 -15 -50 -37 0 -13 -15 -64 -32 -113 -32 -87 -34 -89 -68
-93 -26 -3 -22 -4 18 -5 l52 -2 0 -47 c0 -54 -29 -125 -66 -164 -17 -18 -22
-29 -15 -34 16 -9 4 -25 -18 -25 -10 0 -24 -7 -31 -15 -11 -13 -8 -21 18 -48
38 -39 39 -47 10 -47 -34 0 -68 -11 -68 -21 0 -5 23 -9 50 -9 l50 0 0 -95 c0
-99 10 -136 52 -181 18 -21 18 -24 4 -82 -9 -33 -16 -76 -16 -95 0 -32 5 -40
55 -73 82 -54 135 -134 90 -134 -27 0 -16 -21 37 -68 317 -287 653 -473 948
-528 47 -9 128 -31 181 -49 161 -56 413 -105 794 -155 199 -26 1108 -72 1450
-73 265 -1 424 7 1010 54 635 50 1260 119 1395 154 52 13 246 54 430 91 518
102 878 189 982 237 39 18 258 233 1133 1116 597 601 1085 1099 1085 1106 0
10 -99 14 -457 18 -486 5 -643 15 -952 63 -882 136 -1647 495 -2231 1049 -107
101 -162 169 -262 320 -193 294 -273 533 -285 856 l-6 166 -161 17 c-573 61
-1276 187 -1472 265 -523 205 -784 483 -819 871 l-6 75 55 93 c174 293 387
537 600 689 45 31 122 96 172 143 210 198 589 427 1319 795 944 476 1814 821
2889 1145 1122 338 2476 630 3616 779 956 125 1497 167 1866 142 154 -10 186
-9 315 8 750 102 1698 164 2004 131z m-15205 -7687 c0 -9 -18 -31 -39 -50 -22
-18 -46 -49 -52 -68 -11 -29 -18 -35 -42 -35 -43 0 -67 17 -67 48 0 22 9 32
44 50 24 13 54 35 67 48 27 29 89 34 89 7z"/>
<path d="M19910 20509 c-587 -32 -750 -42 -940 -54 -118 -8 -246 -18 -284 -21
l-69 -7 29 -20 c16 -11 59 -51 97 -89 l67 -69 0 -63 c0 -122 -48 -204 -225
-382 -141 -143 -294 -270 -558 -467 -274 -205 -403 -293 -562 -388 -161 -95
-299 -186 -470 -309 -66 -48 -144 -99 -174 -114 -78 -40 -240 -137 -556 -334
-154 -96 -684 -408 -1178 -694 -1039 -600 -929 -552 -1096 -471 -111 55 -201
133 -201 175 0 22 18 38 123 106 244 159 976 595 2067 1232 309 180 642 389
1019 637 755 498 1176 838 1271 1027 17 33 30 65 30 71 0 23 -264 64 -425 66
-95 1 -403 -53 -1125 -197 -750 -150 -1079 -231 -1500 -369 -124 -40 -396
-130 -605 -198 -424 -139 -667 -228 -890 -324 -82 -36 -202 -85 -265 -109
-475 -182 -1121 -596 -2095 -1343 -433 -332 -959 -985 -1162 -1443 -76 -171
-157 -428 -140 -444 3 -4 97 -10 209 -15 112 -4 290 -13 397 -20 122 -7 196
-8 200 -2 4 6 33 6 76 1 39 -5 354 -13 700 -18 347 -5 639 -10 650 -10 11 0
53 2 94 6 70 6 252 -8 335 -26 25 -6 58 -5 88 2 34 8 52 8 59 1 7 -7 21 -7 44
0 24 7 64 7 133 -1 66 -8 110 -8 133 -2 45 13 100 13 155 -1 35 -9 51 -9 69 1
20 10 103 8 467 -14 847 -51 1631 -107 2056 -146 210 -20 214 -20 230 -1 10
11 153 172 318 358 711 798 1321 1528 1723 2063 85 113 194 252 241 310 109
132 281 363 439 590 67 96 141 200 165 230 54 68 127 195 241 415 109 209 177
321 247 402 60 71 151 143 179 143 58 0 188 -106 227 -183 12 -25 27 -70 33
-101 l10 -56 -407 -623 c-224 -342 -457 -689 -518 -772 -497 -674 -1244 -1577
-2224 -2690 l-150 -170 66 -17 c36 -9 75 -21 87 -27 11 -6 57 -15 102 -21 209
-27 671 -174 1027 -327 l78 -33 87 61 c291 209 662 542 977 878 l177 190 28
-14 c38 -20 75 -101 94 -209 16 -86 16 -88 -4 -110 -26 -27 -90 -167 -127
-275 l-29 -84 -125 -113 c-193 -174 -566 -477 -669 -544 l-23 -16 73 -59 c143
-116 205 -181 230 -243 12 -31 51 -118 86 -192 71 -150 70 -137 31 -300 -11
-47 -31 -109 -44 -138 -22 -49 -22 -56 -9 -75 25 -35 18 -57 -39 -118 -54 -58
-173 -218 -292 -391 -32 -48 -68 -91 -80 -97 -12 -5 -62 -48 -113 -96 -78 -75
-89 -90 -79 -103 11 -12 10 -16 -1 -20 -23 -8 -277 -178 -562 -378 -151 -106
-329 -223 -395 -260 -392 -220 -921 -489 -1216 -619 -86 -38 -156 -71 -154
-72 1 -1 29 4 61 12 75 18 75 18 75 1 0 -11 33 -3 133 30 282 95 765 226 1292
349 162 38 318 80 370 101 237 95 578 202 810 254 55 12 117 31 139 42 60 30
329 134 761 293 482 177 475 175 608 237 100 48 110 51 141 40 31 -11 36 -9
117 44 155 103 500 262 949 439 232 91 303 124 570 265 380 199 737 404 1102
631 113 71 212 129 219 129 30 0 223 124 459 294 69 49 213 153 320 230 464
333 780 605 1006 870 249 290 550 826 648 1154 52 171 59 249 53 560 -4 259
-7 299 -31 408 -59 277 -179 526 -363 754 -92 114 -304 315 -438 415 -388 292
-893 539 -1515 743 -286 94 -874 228 -1315 301 -754 125 -1572 182 -2155 150z"/>
<path d="M15125 20099 c-22 -4 -170 -33 -330 -64 -838 -162 -1986 -445 -2599
-640 -508 -161 -1091 -384 -1825 -697 -574 -245 -897 -413 -1579 -820 -188
-112 -263 -164 -380 -262 -445 -371 -696 -659 -772 -886 -29 -86 -25 -193 9
-264 134 -274 687 -438 1726 -510 121 -9 235 -17 254 -18 l34 -3 18 89 c67
333 233 707 472 1066 144 215 234 325 340 416 56 48 233 218 393 378 160 160
304 298 320 306 39 20 490 322 734 491 429 298 1172 676 1932 983 435 176 793
300 1118 386 107 29 197 54 199 56 6 6 -18 3 -64 -7z"/>
<path d="M10053 15596 c4 -10 7 -20 7 -22 0 -2 7 -4 16 -4 10 0 14 -6 10 -17
-34 -115 -38 -152 -32 -263 21 -369 151 -645 436 -931 211 -212 444 -372 785
-539 131 -64 194 -88 340 -130 311 -87 644 -153 960 -192 174 -21 999 -17
1174 5 362 46 575 128 681 262 14 18 159 174 321 346 530 564 1182 1270 1177
1275 -15 13 -600 58 -1678 129 -464 30 -572 34 -591 19 -10 -8 -64 -8 -179 -3
-562 27 -1805 59 -2274 59 -167 0 -272 4 -297 12 -31 9 -44 8 -64 -2 -25 -13
-331 -10 -667 7 -122 6 -131 5 -125 -11z"/>
<path d="M16330 15158 c-141 -158 -166 -184 -636 -684 -248 -264 -392 -420
-525 -571 -15 -17 -36 -34 -46 -37 -10 -3 -30 -25 -45 -48 l-27 -43 42 -3 c32
-2 105 18 297 83 786 266 1473 574 1965 883 66 42 179 105 250 142 72 36 143
75 159 85 l28 19 -73 28 c-153 59 -558 172 -799 223 -165 34 -398 75 -430 75
-20 0 -54 -33 -160 -152z"/>
<path d="M18095 14678 c-60 -39 -168 -104 -239 -145 -173 -100 -884 -455
-1121 -560 -672 -299 -1359 -520 -2038 -657 l-208 -43 -26 -44 c-70 -124 -344
-410 -628 -656 -86 -74 -154 -142 -174 -174 -42 -64 -336 -365 -595 -609 -108
-101 -218 -214 -245 -250 -27 -36 -126 -144 -220 -242 -176 -182 -200 -218
-143 -218 55 0 260 39 367 70 61 17 220 58 355 89 383 91 1491 450 2121 689
301 114 692 297 859 402 41 26 190 108 330 182 476 253 710 396 1018 626 472
351 758 693 858 1027 23 75 27 110 28 210 1 114 0 123 -30 185 -27 57 -135
191 -153 189 -3 0 -55 -32 -116 -71z"/>
<path d="M4300 7835 c0 -24 2 -25 65 -25 47 0 65 4 65 13 0 25 -25 37 -77 37
-50 0 -53 -1 -53 -25z"/>
</g>
</svg>
